<svg xmlns="http://www.w3.org/2000/svg" viewBox="0 0 800 500" width="800" height="500">
  <defs>
    <linearGradient id="bg" x1="0%" y1="0%" x2="100%" y2="100%">
      <stop offset="0%" style="stop-color:#0a0015"/>
      <stop offset="30%" style="stop-color:#1a0533"/>
      <stop offset="60%" style="stop-color:#2d1b69"/>
      <stop offset="100%" style="stop-color:#0a0015"/>
    </linearGradient>
    
    <linearGradient id="sky" x1="0%" y1="0%" x2="0%" y2="100%">
      <stop offset="0%" style="stop-color:#0a0015;stop-opacity:0"/>
      <stop offset="50%" style="stop-color:#1a0533;stop-opacity:0.5"/>
      <stop offset="100%" style="stop-color:#2d1b69;stop-opacity:1"/>
    </linearGradient>
    
    <radialGradient id="bubble" cx="50%" cy="50%" r="50%">
      <stop offset="0%" style="stop-color:rgba(255,182,193,0.6)"/>
      <stop offset="100%" style="stop-color:rgba(135,206,235,0.2)"/>
    </radialGradient>
    
    <radialGradient id="glow" cx="50%" cy="50%" r="50%">
      <stop offset="0%" style="stop-color:rgba(168,85,247,0.8)"/>
      <stop offset="100%" style="stop-color:rgba(168,85,247,0)"/>
    </radialGradient>
    
    <radialGradient id="moonGlow" cx="50%" cy="50%" r="50%">
      <stop offset="0%" style="stop-color:rgba(255,255,200,0.8)"/>
      <stop offset="50%" style="stop-color:rgba(255,255,200,0.2)"/>
      <stop offset="100%" style="stop-color:rgba(255,255,200,0)"/>
    </radialGradient>
    
    <radialGradient id="firefly" cx="50%" cy="50%" r="50%">
      <stop offset="0%" style="stop-color:rgba(255,255,100,0.9)"/>
      <stop offset="50%" style="stop-color:rgba(200,255,100,0.4)"/>
      <stop offset="100%" style="stop-color:rgba(200,255,100,0)"/>
    </radialGradient>
    
    <linearGradient id="heartGrad" x1="0%" y1="0%" x2="100%" y2="100%">
      <stop offset="0%" style="stop-color:#ff6b9d"/>
      <stop offset="100%" style="stop-color:#ff69b4"/>
    </linearGradient>
    
    <linearGradient id="balloonGrad" x1="0%" y1="0%" x2="0%" y2="100%">
      <stop offset="0%" style="stop-color:#ff9a9e"/>
      <stop offset="100%" style="stop-color:#fecfef"/>
    </linearGradient>
    
    <linearGradient id="balloonGrad2" x1="0%" y1="0%" x2="0%" y2="100%">
      <stop offset="0%" style="stop-color:#a18cd1"/>
      <stop offset="100%" style="stop-color:#fbc2eb"/>
    </linearGradient>
    
    <linearGradient id="castleGrad" x1="0%" y1="0%" x2="0%" y2="100%">
      <stop offset="0%" style="stop-color:#2d1b69;stop-opacity:0.6"/>
      <stop offset="100%" style="stop-color:#1a0533;stop-opacity:0.8"/>
    </linearGradient>
    
    <style>
      @keyframes float-up {
        0% { transform: translateY(500px) scale(0.5); opacity: 0; }
        10% { opacity: 0.8; }
        90% { opacity: 0.6; }
        100% { transform: translateY(-50px) scale(1.2); opacity: 0; }
      }
      
      @keyframes fall-down {
        0% { transform: translateY(-30px) rotate(0deg) scale(0.8); opacity: 0; }
        10% { opacity: 0.9; }
        90% { opacity: 0.7; }
        100% { transform: translateY(530px) rotate(360deg) scale(0.6); opacity: 0; }
      }
      
      @keyframes twinkle {
        0%, 100% { opacity: 0.3; transform: scale(0.8); }
        50% { opacity: 1; transform: scale(1.2); }
      }
      
      @keyframes float-around {
        0% { transform: translate(0, 0); opacity: 0.6; }
        25% { transform: translate(30px, -20px); opacity: 0.9; }
        50% { transform: translate(-20px, 10px); opacity: 0.5; }
        75% { transform: translate(15px, 25px); opacity: 0.8; }
        100% { transform: translate(0, 0); opacity: 0.6; }
      }
      
      @keyframes pulse {
        0%, 100% { transform: scale(1); opacity: 0.6; }
        50% { transform: scale(1.5); opacity: 0.9; }
      }
      
      @keyframes shimmer {
        0% { opacity: 0; transform: translateX(-100px); }
        50% { opacity: 0.8; }
        100% { opacity: 0; transform: translateX(100px); }
      }
      
      @keyframes cloud-drift {
        0% { transform: translateX(-100px); }
        100% { transform: translateX(900px); }
      }
      
      @keyframes moon-glow {
        0%, 100% { filter: drop-shadow(0 0 10px rgba(255,255,200,0.3)); }
        50% { filter: drop-shadow(0 0 25px rgba(255,255,200,0.8)); }
      }
      
      @keyframes shooting-star {
        0% { transform: translate(0, 0); opacity: 0; }
        10% { opacity: 1; }
        70% { opacity: 1; }
        100% { transform: translate(300px, 150px); opacity: 0; }
      }
      
      @keyframes heart-float {
        0% { transform: translateY(500px) scale(0.3); opacity: 0; }
        10% { opacity: 0.8; }
        90% { opacity: 0.5; }
        100% { transform: translateY(-50px) scale(1); opacity: 0; }
      }
      
      @keyframes note-float {
        0% { transform: translateY(0) rotate(0deg); opacity: 0.8; }
        50% { transform: translateY(-100px) rotate(15deg); opacity: 0.6; }
        100% { transform: translateY(-200px) rotate(-10deg); opacity: 0; }
      }
      
      @keyframes firefly-glow {
        0%, 100% { opacity: 0.2; transform: scale(0.8); }
        25% { opacity: 0.9; transform: scale(1.2); }
        50% { opacity: 0.3; transform: scale(0.9); }
        75% { opacity: 1; transform: scale(1.3); }
      }
      
      @keyframes balloon-float {
        0% { transform: translateY(10px) translateX(0); }
        25% { transform: translateY(-15px) translateX(10px); }
        50% { transform: translateY(5px) translateX(-5px); }
        75% { transform: translateY(-10px) translateX(8px); }
        100% { transform: translateY(10px) translateX(0); }
      }
      
      .bubble {
        animation: float-up linear infinite;
      }
      
      .petal {
        animation: fall-down linear infinite;
      }
      
      .star {
        animation: twinkle ease-in-out infinite;
      }
      
      .sparkle {
        animation: float-around ease-in-out infinite;
      }
      
      .light {
        animation: pulse ease-in-out infinite;
      }
      
      .shimmer-line {
        animation: shimmer ease-in-out infinite;
      }
      
      .cloud {
        animation: cloud-drift linear infinite;
      }
      
      .moon {
        animation: moon-glow ease-in-out infinite;
      }
      
      .shooting-star {
        animation: shooting-star linear infinite;
      }
      
      .heart {
        animation: heart-float linear infinite;
      }
      
      .note {
        animation: note-float ease-in-out infinite;
      }
      
      .firefly {
        animation: firefly-glow ease-in-out infinite;
      }
      
      .balloon {
        animation: balloon-float ease-in-out infinite;
      }
    </style>
  </defs>
  
  <!-- Background -->
  <rect width="800" height="500" fill="url(#bg)"/>
  
  <!-- Stars in sky -->
  <polygon points="50,30 53,40 63,40 55,46 58,56 50,50 42,56 45,46 37,40 47,40" fill="#ffd700" class="star" style="animation-duration: 2s; animation-delay: 0s;"/>
  <polygon points="150,50 153,60 163,60 155,66 158,76 150,70 142,76 145,66 137,60 147,60" fill="#ffffff" class="star" style="animation-duration: 1.5s; animation-delay: 0.5s;"/>
  <polygon points="250,25 253,35 263,35 255,41 258,51 250,45 242,51 245,41 237,35 247,35" fill="#ffd700" class="star" style="animation-duration: 2.5s; animation-delay: 1s;"/>
  <polygon points="350,45 353,55 363,55 355,61 358,71 350,65 342,71 345,61 337,55 347,55" fill="#ffffff" class="star" style="animation-duration: 1.8s; animation-delay: 0.3s;"/>
  <polygon points="450,70 453,80 463,80 455,86 458,96 450,90 442,96 445,86 437,80 447,80" fill="#ffd700" class="star" style="animation-duration: 2.2s; animation-delay: 1.5s;"/>
  <polygon points="550,35 553,45 563,45 555,51 558,61 550,55 542,61 545,51 537,45 547,45" fill="#ffffff" class="star" style="animation-duration: 1.7s; animation-delay: 0.8s;"/>
  <polygon points="650,55 653,65 663,65 655,71 658,81 650,75 642,81 645,71 637,65 647,65" fill="#ffd700" class="star" style="animation-duration: 2.1s; animation-delay: 0.2s;"/>
  <polygon points="750,30 753,40 763,40 755,46 758,56 750,50 742,56 745,46 737,40 747,40" fill="#ffffff" class="star" style="animation-duration: 1.9s; animation-delay: 1.2s;"/>
  
  <!-- Moon -->
  <circle cx="700" cy="80" r="35" fill="#fffde7" class="moon"/>
  <circle cx="700" cy="80" r="50" fill="url(#moonGlow)" opacity="0.3"/>
  <circle cx="690" cy="70" r="8" fill="#0a0015" opacity="0.3"/>
  <circle cx="710" cy="85" r="5" fill="#0a0015" opacity="0.2"/>
  
  <!-- Shooting stars -->
  <line x1="100" y1="50" x2="130" y2="55" stroke="#ffffff" stroke-width="2" stroke-linecap="round" class="shooting-star" style="animation-duration: 3s; animation-delay: 0s;"/>
  <line x1="400" y1="80" x2="430" y2="85" stroke="#ffb6c1" stroke-width="2" stroke-linecap="round" class="shooting-star" style="animation-duration: 4s; animation-delay: 2s;"/>
  <line x1="600" y1="30" x2="630" y2="35" stroke="#ffffff" stroke-width="1.5" stroke-linecap="round" class="shooting-star" style="animation-duration: 3.5s; animation-delay: 1s;"/>
  
  <!-- Clouds -->
  <g class="cloud" style="animation-duration: 25s; animation-delay: 0s;">
    <ellipse cx="100" cy="120" rx="60" ry="20" fill="rgba(255,255,255,0.1)"/>
    <ellipse cx="130" cy="110" rx="40" ry="15" fill="rgba(255,255,255,0.08)"/>
    <ellipse cx="80" cy="115" rx="35" ry="12" fill="rgba(255,255,255,0.06)"/>
  </g>
  <g class="cloud" style="animation-duration: 30s; animation-delay: 5s;">
    <ellipse cx="500" cy="140" rx="70" ry="22" fill="rgba(255,182,193,0.08)"/>
    <ellipse cx="530" cy="130" rx="45" ry="16" fill="rgba(255,182,193,0.06)"/>
    <ellipse cx="480" cy="135" rx="40" ry="14" fill="rgba(255,182,193,0.05)"/>
  </g>
  <g class="cloud" style="animation-duration: 28s; animation-delay: 10s;">
    <ellipse cx="750" cy="160" rx="55" ry="18" fill="rgba(168,85,247,0.08)"/>
    <ellipse cx="770" cy="150" rx="35" ry="12" fill="rgba(168,85,247,0.06)"/>
  </g>
  
  <!-- Fireflies -->
  <circle cx="50" cy="200" r="4" fill="url(#firefly)" class="firefly" style="animation-duration: 3s; animation-delay: 0s;"/>
  <circle cx="180" cy="250" r="3" fill="url(#firefly)" class="firefly" style="animation-duration: 2.5s; animation-delay: 0.5s;"/>
  <circle cx="320" cy="180" r="4" fill="url(#firefly)" class="firefly" style="animation-duration: 3.5s; animation-delay: 1s;"/>
  <circle cx="450" cy="220" r="3" fill="url(#firefly)" class="firefly" style="animation-duration: 2.8s; animation-delay: 1.5s;"/>
  <circle cx="580" cy="190" r="4" fill="url(#firefly)" class="firefly" style="animation-duration: 3.2s; animation-delay: 0.3s;"/>
  <circle cx="700" cy="240" r="3" fill="url(#firefly)" class="firefly" style="animation-duration: 2.7s; animation-delay: 2s;"/>
  <circle cx="130" cy="300" r="3" fill="url(#firefly)" class="firefly" style="animation-duration: 3.3s; animation-delay: 0.8s;"/>
  <circle cx="400" cy="280" r="4" fill="url(#firefly)" class="firefly" style="animation-duration: 2.9s; animation-delay: 1.2s;"/>
  
  <!-- Sparkles -->
  <circle cx="100" cy="150" r="3" fill="url(#glow)" class="sparkle" style="animation-duration: 5s; animation-delay: 0s;"/>
  <circle cx="300" cy="200" r="4" fill="url(#glow)" class="sparkle" style="animation-duration: 6s; animation-delay: 1s;"/>
  <circle cx="500" cy="130" r="3" fill="url(#glow)" class="sparkle" style="animation-duration: 4s; animation-delay: 2s;"/>
  <circle cx="700" cy="180" r="5" fill="url(#glow)" class="sparkle" style="animation-duration: 7s; animation-delay: 0.5s;"/>
  
  <!-- Castle silhouette -->
  <g opacity="0.4">
    <rect x="300" y="420" width="200" height="80" fill="url(#castleGrad)" rx="2"/>
    <rect x="310" y="400" width="25" height="100" fill="url(#castleGrad)" rx="1"/>
    <rect x="465" y="400" width="25" height="100" fill="url(#castleGrad)" rx="1"/>
    <polygon points="310,400 322.5,380 335,400" fill="url(#castleGrad)"/>
    <polygon points="465,400 477.5,380 490,400" fill="url(#castleGrad)"/>
    <rect x="370" y="450" width="60" height="50" fill="#1a0533" rx="30 30 0 0"/>
    <rect x="330" y="430" width="20" height="30" fill="#1a0533" rx="2"/>
    <rect x="450" y="430" width="20" height="30" fill="#1a0533" rx="2"/>
    <!-- Tower flags -->
    <line x1="322.5" y1="380" x2="322.5" y2="365" stroke="#ff69b4" stroke-width="2"/>
    <polygon points="322.5,365 335,370 322.5,375" fill="#ff69b4"/>
    <line x1="477.5" y1="380" x2="477.5" y2="365" stroke="#ff69b4" stroke-width="2"/>
    <polygon points="477.5,365 490,370 477.5,375" fill="#ff69b4"/>
  </g>
  
  <!-- Hot air balloons -->
  <g class="balloon" style="animation-duration: 8s; animation-delay: 0s;">
    <ellipse cx="150" cy="300" rx="25" ry="30" fill="url(#balloonGrad)" opacity="0.8"/>
    <line x1="140" y1="330" x2="145" y2="350" stroke="#ffb6c1" stroke-width="1"/>
    <line x1="160" y1="330" x2="155" y2="350" stroke="#ffb6c1" stroke-width="1"/>
    <rect x="140" y="350" width="20" height="12" fill="#ffb6c1" rx="2" opacity="0.7"/>
    <!-- Basket pattern -->
    <line x1="140" y1="356" x2="160" y2="356" stroke="#ff69b4" stroke-width="0.5" opacity="0.5"/>
  </g>
  
  <g class="balloon" style="animation-duration: 10s; animation-delay: 3s;">
    <ellipse cx="650" cy="320" rx="22" ry="27" fill="url(#balloonGrad2)" opacity="0.7"/>
    <line x1="640" y1="347" x2="644" y2="365" stroke="#a18cd1" stroke-width="1"/>
    <line x1="660" y1="347" x2="656" y2="365" stroke="#a18cd1" stroke-width="1"/>
    <rect x="640" y="365" width="18" height="10" fill="#a18cd1" rx="2" opacity="0.6"/>
  </g>
  
  <!-- Hearts -->
  <path d="M10,35 C10,25 20,20 25,30 C30,20 40,25 40,35 C40,45 25,55 25,55 C25,55 10,45 10,35Z" fill="url(#heartGrad)" class="heart" style="animation-duration: 6s; animation-delay: 0s; transform-origin: 25px 40px;"/>
  <path d="M570,420 C570,410 580,405 585,415 C590,405 600,410 600,420 C600,430 585,440 585,440 C585,440 570,430 570,420Z" fill="url(#heartGrad)" class="heart" style="animation-duration: 7s; animation-delay: 2s; transform-origin: 585px 425px;"/>
  <path d="M720,350 C720,340 730,335 735,345 C740,335 750,340 750,350 C750,360 735,370 735,370 C735,370 720,360 720,350Z" fill="#ff69b4" class="heart" style="animation-duration: 5s; animation-delay: 1s; transform-origin: 735px 355px;"/>
  
  <!-- Music notes -->
  <g class="note" style="animation-duration: 4s; animation-delay: 0s;">
    <circle cx="400" cy="380" r="6" fill="#ffd700" opacity="0.7"/>
    <line x1="406" y1="380" x2="406" y2="355" stroke="#ffd700" stroke-width="2" opacity="0.7"/>
    <path d="M406,355 Q420,350 415,360" fill="none" stroke="#ffd700" stroke-width="2" opacity="0.7"/>
  </g>
  
  <g class="note" style="animation-duration: 5s; animation-delay: 1.5s;">
    <circle cx="250" cy="400" r="5" fill="#ff69b4" opacity="0.6"/>
    <line x1="255" y1="400" x2="255" y2="380" stroke="#ff69b4" stroke-width="1.5" opacity="0.6"/>
    <path d="M255,380 Q265,375 262,383" fill="none" stroke="#ff69b4" stroke-width="1.5" opacity="0.6"/>
  </g>
  
  <g class="note" style="animation-duration: 4.5s; animation-delay: 3s;">
    <circle cx="550" cy="420" r="5" fill="#a855f7" opacity="0.6"/>
    <line x1="555" y1="420" x2="555" y2="398" stroke="#a855f7" stroke-width="1.5" opacity="0.6"/>
    <path d="M555,398 Q565,393 562,401" fill="none" stroke="#a855f7" stroke-width="1.5" opacity="0.6"/>
  </g>
  
  <!-- Shimmer effect -->
  <line x1="0" y1="250" x2="800" y2="250" stroke="rgba(255,182,193,0.05)" stroke-width="1" class="shimmer-line" style="animation-duration: 4s;"/>
  <line x1="0" y1="350" x2="800" y2="350" stroke="rgba(78,205,196,0.05)" stroke-width="1" class="shimmer-line" style="animation-duration: 5s; animation-delay: 1s;"/>
  
  <!-- Bubbles -->
  <circle cx="80" cy="500" r="12" fill="url(#bubble)" class="bubble" style="animation-duration: 6s; animation-delay: 0s;"/>
  <circle cx="200" cy="500" r="8" fill="url(#bubble)" class="bubble" style="animation-duration: 8s; animation-delay: 1s;"/>
  <circle cx="350" cy="500" r="15" fill="url(#bubble)" class="bubble" style="animation-duration: 7s; animation-delay: 2s;"/>
  <circle cx="500" cy="500" r="10" fill="url(#bubble)" class="bubble" style="animation-duration: 9s; animation-delay: 0.5s;"/>
  <circle cx="650" cy="500" r="13" fill="url(#bubble)" class="bubble" style="animation-duration: 6.5s; animation-delay: 3s;"/>
  <circle cx="750" cy="500" r="9" fill="url(#bubble)" class="bubble" style="animation-duration: 7.5s; animation-delay: 1.5s;"/>
  
  <!-- Petals -->
  <ellipse cx="120" cy="0" rx="8" ry="12" fill="#ffb6c1" opacity="0.8" class="petal" style="animation-duration: 8s; animation-delay: 0s;" transform="rotate(30, 120, 0)"/>
  <ellipse cx="280" cy="0" rx="10" ry="14" fill="#ff69b4" opacity="0.7" class="petal" style="animation-duration: 10s; animation-delay: 2s;" transform="rotate(-20, 280, 0)"/>
  <ellipse cx="420" cy="0" rx="7" ry="11" fill="#ffc0cb" opacity="0.9" class="petal" style="animation-duration: 9s; animation-delay: 1s;" transform="rotate(45, 420, 0)"/>
  <ellipse cx="580" cy="0" rx="9" ry="13" fill="#ffb6c1" opacity="0.6" class="petal" style="animation-duration: 11s; animation-delay: 3s;" transform="rotate(-35, 580, 0)"/>
  <ellipse cx="720" cy="0" rx="11" ry="15" fill="#ff69b4" opacity="0.8" class="petal" style="animation-duration: 7s; animation-delay: 1.5s;" transform="rotate(25, 720, 0)"/>
  
  <!-- Ground hills -->
  <ellipse cx="200" cy="500" rx="250" ry="60" fill="#1a0533" opacity="0.5"/>
  <ellipse cx="600" cy="500" rx="300" ry="70" fill="#0a0015" opacity="0.4"/>
  <ellipse cx="400" cy="500" rx="200" ry="50" fill="#2d1b69" opacity="0.3"/>
  
  <!-- Text (Note Script ExtraBold font) -->
  <!-- Line 1: *** Hi there, I'm jing! *** -->
  <path d="M1634 659Q1634 607 1560.5 555.5Q1487 504 1320.0 468.5Q1153 433 889 433Q741 433 628.0 408.5Q515 384 438.5 349.0Q362 314 288 267L276 280Q352 328 428.5 363.5Q505 399 620.5 424.0Q736 449 889 449Q1145 449 1308.0 482.5Q1471 516 1543.5 565.0Q1616 614 1616 661Q1616 679 1601.0 689.5Q1586 700 1559 700Q1460 700 1336.5 613.0Q1213 526 1127.0 392.5Q1041 259 1041 128Q1041 80 1061.5 59.5Q1082 39 1111 39Q1148 39 1204.0 88.0Q1260 137 1329 231H1349Q1287 144 1239.5 92.0Q1192 40 1142.0 12.0Q1092 -16 1035 -16Q994 -16 958.5 1.5Q923 19 902.0 54.5Q881 90 881 139Q881 279 994.5 412.5Q1108 546 1267.5 631.0Q1427 716 1546 716Q1634 716 1634 659ZM753 330Q607 138 468.0 61.0Q329 -16 189 -16Q102 -16 43.0 20.5Q-16 57 -16 126Q-16 171 9.0 201.0Q34 231 67 231Q86 231 98.0 220.0Q110 209 110 193Q110 176 98.0 167.0Q86 158 62 148Q37 138 25.0 128.5Q13 119 13 101Q13 64 50.0 38.5Q87 13 139 13Q219 13 287.0 54.5Q355 96 412.5 160.5Q470 225 559 342L613 412Q685 505 751.5 560.5Q818 616 898.5 644.0Q979 672 1087 672V679Q1011 678 957.0 683.5Q903 689 835 699Q782 708 743.0 712.0Q704 716 656 716Q544 716 470.5 692.5Q397 669 353.5 629.5Q310 590 276 532H256Q282 595 339.5 660.5Q397 726 482.5 771.0Q568 816 669 816Q728 816 776.5 801.5Q825 787 889 758Q955 729 1003.0 714.5Q1051 700 1111 700Q1164 700 1214.0 721.5Q1264 743 1317 776L1328 765Q1256 715 1142 674Q1080 652 1024.5 615.0Q969 578 903.5 510.0Q838 442 753 330Z" fill="#ffffff" transform="translate(240, 260) scale(0.045, -0.045)" style="filter: drop-shadow(0 0 8px rgba(168,85,247,0.5));"/>
  <path d="M82 58Q82 46 87.5 40.0Q93 34 102 34Q122 34 154 65L331 231H351L174 61Q128 17 101.0 0.5Q74 -16 46 -16Q6 -16 -16.5 8.5Q-39 33 -39 70Q-39 106 -18 139L131 375H271L98 99Q82 74 82 58ZM200 489Q200 511 217.5 535.0Q235 559 262.5 575.5Q290 592 317 592Q337 592 348.0 582.0Q359 572 359 555Q359 533 341.5 509.0Q324 485 296.5 468.5Q269 452 243 452Q223 452 211.5 462.0Q200 472 200 489Z" fill="#ffffff" transform="translate(307.7, 260) scale(0.045, -0.045)" style="filter: drop-shadow(0 0 8px rgba(168,85,247,0.5));"/>
  <path d="M155 62Q155 50 161.5 44.0Q168 38 178 38Q198 38 230 69L401 231H421L244 61Q198 17 171.0 0.5Q144 -16 116 -16Q77 -16 54.0 8.5Q31 33 31 70Q31 105 52 139L303 538H443L168 99Q155 77 155 62ZM433 375V360H117V375Z" fill="#ffffff" transform="translate(339.0, 260) scale(0.045, -0.045)" style="filter: drop-shadow(0 0 8px rgba(168,85,247,0.5));"/>
  <path d="M146 231H153Q192 283 223.5 316.0Q255 349 293.0 370.0Q331 391 377 391Q418 391 442.5 370.0Q467 349 467 310Q467 268 439 225L359 103Q346 84 346 65Q346 53 353.5 45.5Q361 38 371 38Q391 38 423 69L594 231H614L437 61Q391 17 364.0 0.5Q337 -16 309 -16Q269 -16 246.5 7.5Q224 31 224 67Q224 105 248 144L345 297Q358 317 358 334Q358 347 350.0 354.0Q342 361 329 361Q282 361 221.5 292.5Q161 224 112 144L23 0H-117L323 700H459Z" fill="#ffffff" transform="translate(358.7, 260) scale(0.045, -0.045)" style="filter: drop-shadow(0 0 8px rgba(168,85,247,0.5));"/>
  <path d="M109 -16Q55 -16 16.5 13.5Q-22 43 -22 108Q-22 172 35.5 238.5Q93 305 180.5 348.0Q268 391 349 391Q395 391 426.5 376.5Q458 362 458 331Q458 288 399.5 250.5Q341 213 261.0 190.5Q181 168 124 168L134 189Q181 189 237.5 212.0Q294 235 332.5 272.0Q371 309 371 347Q371 360 363.5 367.5Q356 375 342 375Q297 375 239.5 317.0Q182 259 140.5 181.0Q99 103 99 51Q99 9 144 9Q214 9 305.0 71.0Q396 133 472 231H492Q404 123 307.0 53.5Q210 -16 109 -16Z" fill="#ffffff" transform="translate(388.1, 260) scale(0.045, -0.045)" style="filter: drop-shadow(0 0 8px rgba(168,85,247,0.5));"/>
  <path d="M145 231H152Q245 352 317 375H457L309 216Q274 178 274 150Q274 135 284.5 126.0Q295 117 313 117Q333 117 354.0 131.0Q375 145 391.0 159.5Q407 174 411 178L469 231H489L434 178Q388 134 361.0 117.5Q334 101 306 101Q267 101 243.5 125.5Q220 150 220 186Q220 221 242 256L307 359Q264 339 217.5 288.0Q171 237 147 198L23 0H-117L118 375H256Z" fill="#ffffff" transform="translate(411.8, 260) scale(0.045, -0.045)" style="filter: drop-shadow(0 0 8px rgba(168,85,247,0.5));"/>
  <path d="M109 -16Q55 -16 16.5 13.5Q-22 43 -22 108Q-22 172 35.5 238.5Q93 305 180.5 348.0Q268 391 349 391Q395 391 426.5 376.5Q458 362 458 331Q458 288 399.5 250.5Q341 213 261.0 190.5Q181 168 124 168L134 189Q181 189 237.5 212.0Q294 235 332.5 272.0Q371 309 371 347Q371 360 363.5 367.5Q356 375 342 375Q297 375 239.5 317.0Q182 259 140.5 181.0Q99 103 99 51Q99 9 144 9Q214 9 305.0 71.0Q396 133 472 231H492Q404 123 307.0 53.5Q210 -16 109 -16Z" fill="#ffffff" transform="translate(434.9, 260) scale(0.045, -0.045)" style="filter: drop-shadow(0 0 8px rgba(168,85,247,0.5));"/>
  <path d="M-26 0Q-36 0 -43.0 7.0Q-50 14 -50 30Q-50 49 -38.5 70.0Q-27 91 -7.5 105.5Q12 120 34 120Q62 120 62 88Q62 52 36.0 17.0Q10 -18 -26.0 -44.0Q-62 -70 -89 -78L-95 -74Q-55 -56 -26.0 -28.5Q3 -1 11 25H5Q0 13 -8.5 6.5Q-17 0 -26 0Z" fill="#ffffff" transform="translate(458.7, 260) scale(0.045, -0.045)" style="filter: drop-shadow(0 0 8px rgba(168,85,247,0.5));"/>
  <path d="M753 330Q607 138 468.0 61.0Q329 -16 189 -16Q102 -16 43.0 20.5Q-16 57 -16 126Q-16 171 9.0 201.0Q34 231 67 231Q86 231 98.0 220.0Q110 209 110 193Q110 176 98.0 167.0Q86 158 62 148Q37 138 25.0 128.5Q13 119 13 101Q13 64 50.0 38.5Q87 13 139 13Q219 13 287.0 54.5Q355 96 412.5 160.5Q470 225 559 342L613 412Q685 505 751.5 560.5Q818 616 898.5 644.0Q979 672 1087 672V679Q1011 678 957.0 683.5Q903 689 835 699Q782 708 743.0 712.0Q704 716 656 716Q544 716 470.5 692.5Q397 669 353.5 629.5Q310 590 276 532H256Q282 595 339.5 660.5Q397 726 482.5 771.0Q568 816 669 816Q728 816 776.5 801.5Q825 787 889 758Q955 729 1003.0 714.5Q1051 700 1111 700Q1164 700 1214.0 721.5Q1264 743 1317 776L1328 765Q1256 715 1142 674Q1080 652 1024.5 615.0Q969 578 903.5 510.0Q838 442 753 330Z" fill="#ffffff" transform="translate(467.3, 260) scale(0.045, -0.045)" style="filter: drop-shadow(0 0 8px rgba(168,85,247,0.5));"/>
  <path d="M145 639Q140 675 129 778Q125 816 162 816Q177 816 186.0 807.5Q195 799 192 778Q169 640 164 606L160 580H151Q151 591 149.0 606.5Q147 622 145 639Z" fill="#ffffff" transform="translate(515.6, 260) scale(0.045, -0.045)" style="filter: drop-shadow(0 0 8px rgba(168,85,247,0.5));"/>
  <path d="M143 231H150Q198 293 232.5 326.5Q267 360 299.0 375.5Q331 391 369 391Q403 391 427.0 372.0Q451 353 451 319Q451 280 419 231H426Q472 300 509.0 335.0Q546 370 577.0 380.5Q608 391 645 391Q689 391 715.5 368.0Q742 345 742 307Q742 268 715 225L637 99Q624 77 624 63Q624 52 631.5 45.5Q639 39 649 39Q669 39 701 70L870 231H890L713 61Q664 13 633.5 -1.5Q603 -16 572 -16Q539 -16 518.0 6.5Q497 29 497 64Q497 102 521 139L621 297Q633 318 633 332Q633 345 623.5 353.0Q614 361 597 361Q557 361 514.5 319.5Q472 278 438 222L299 0H159L350 306Q358 318 358 331Q358 344 349.0 352.5Q340 361 326 361Q287 361 233.5 305.0Q180 249 137 181L23 0H-117L117 375H257Z" fill="#ffffff" transform="translate(523.1, 260) scale(0.045, -0.045)" style="filter: drop-shadow(0 0 8px rgba(168,85,247,0.5));"/>
  <path d="M-442 -425Q-494 -425 -528.5 -397.5Q-563 -370 -563 -324Q-563 -244 -436 -200L-355 -173Q-199 -121 -87.5 -75.0Q24 -29 139.5 47.0Q255 123 342 231H362Q276 126 170.5 52.0Q65 -22 -35.0 -67.5Q-135 -113 -277 -167Q-360 -197 -410 -219Q-456 -239 -480.5 -271.0Q-505 -303 -505 -339Q-505 -373 -485.0 -391.0Q-465 -409 -436 -409Q-384 -409 -332.5 -356.0Q-281 -303 -202 -180L151 375H291L57 0Q-16 -117 -88.0 -207.5Q-160 -298 -251.0 -361.5Q-342 -425 -442 -425ZM207 489Q207 504 217 523Q232 552 263.0 572.0Q294 592 324 592Q344 592 355.0 582.0Q366 572 366 555Q366 540 357 523Q341 493 310.0 472.5Q279 452 250 452Q230 452 218.5 462.0Q207 472 207 489Z" fill="#ffffff" transform="translate(581.3, 260) scale(0.045, -0.045)" style="filter: drop-shadow(0 0 8px rgba(168,85,247,0.5));"/>
  <path d="M82 58Q82 46 87.5 40.0Q93 34 102 34Q122 34 154 65L331 231H351L174 61Q128 17 101.0 0.5Q74 -16 46 -16Q6 -16 -16.5 8.5Q-39 33 -39 70Q-39 106 -18 139L131 375H271L98 99Q82 74 82 58ZM200 489Q200 511 217.5 535.0Q235 559 262.5 575.5Q290 592 317 592Q337 592 348.0 582.0Q359 572 359 555Q359 533 341.5 509.0Q324 485 296.5 468.5Q269 452 243 452Q223 452 211.5 462.0Q200 472 200 489Z" fill="#ffffff" transform="translate(598.0, 260) scale(0.045, -0.045)" style="filter: drop-shadow(0 0 8px rgba(168,85,247,0.5));"/>
  <path d="M257 375 146 231H153Q217 316 268.5 353.5Q320 391 374 391Q417 391 442.5 369.0Q468 347 468 309Q468 271 440 225L362 99Q350 80 350 63Q350 52 356.0 46.0Q362 40 373 40Q394 40 426 71L595 231H615L438 61Q393 18 364.0 1.0Q335 -16 306 -16Q265 -16 242.5 5.0Q220 26 220 61Q220 97 246 139L346 297Q361 321 361 337Q361 348 353.5 354.5Q346 361 332 361Q287 361 233.0 304.0Q179 247 148 198L24 0H-116L117 375Z" fill="#ffffff" transform="translate(614.2, 260) scale(0.045, -0.045)" style="filter: drop-shadow(0 0 8px rgba(168,85,247,0.5));"/>
  <path d="M-188 -425Q-242 -425 -278.0 -395.0Q-314 -365 -314 -324Q-314 -249 -187 -203Q-175 -199 -86 -168Q60 -119 165.0 -74.5Q270 -30 383.5 45.5Q497 121 591 231H611Q525 126 419.5 52.0Q314 -22 214.0 -67.5Q114 -113 -28 -167Q-111 -197 -161 -219Q-207 -239 -231.5 -271.0Q-256 -303 -256 -339Q-256 -377 -234.0 -393.0Q-212 -409 -187 -409Q-152 -409 -118.5 -384.5Q-85 -360 -48.0 -313.0Q-11 -266 47 -180L206 54H199Q157 16 130.5 0.0Q104 -16 67 -16Q21 -16 -10.0 12.0Q-41 40 -41 84Q-41 148 17.0 220.5Q75 293 162.5 342.0Q250 391 330 391Q347 391 356.0 380.5Q365 370 365 352Q365 334 357 307H364L400 375H540L306 0Q232 -119 162.0 -208.5Q92 -298 2.0 -361.5Q-88 -425 -188 -425ZM346 346Q346 375 324 375Q286 375 224.0 309.0Q162 243 114.5 159.0Q67 75 67 29Q67 0 88 0Q129 0 190.5 67.0Q252 134 299.0 218.5Q346 303 346 346Z" fill="#ffffff" transform="translate(643.6, 260) scale(0.045, -0.045)" style="filter: drop-shadow(0 0 8px rgba(168,85,247,0.5));"/>
  <path d="M62 80Q62 62 48.5 42.0Q35 22 14.5 8.5Q-6 -5 -24 -5Q-38 -5 -47.0 3.5Q-56 12 -56 25Q-56 43 -42.5 64.0Q-29 85 -8.5 99.0Q12 113 30 113Q45 113 53.5 104.0Q62 95 62 80ZM468 816Q489 816 502.0 802.0Q515 788 515 765Q515 733 489 700L105 209H96L354 700Q381 752 401.0 777.0Q421 802 435.5 809.0Q450 816 468 816Z" fill="#ffffff" transform="translate(672.8, 260) scale(0.045, -0.045)" style="filter: drop-shadow(0 0 8px rgba(168,85,247,0.5));"/>
  
  <!-- Line 2: *** Welcome to my magical space *** -->
  <path d="M536 816Q579 816 615.5 801.5Q652 787 705 757Q754 729 788.5 714.5Q823 700 862 700Q915 700 965.5 722.0Q1016 744 1070 778L1079 765Q1043 739 1008.0 722.5Q973 706 920 684Q886 670 866.0 641.0Q846 612 835.0 573.0Q824 534 808 460L793 392Q768 266 699.0 160.5Q630 55 500 15L503 9Q614 21 688.0 65.5Q762 110 805.5 167.5Q849 225 902 318L932 371Q1014 508 1091.5 604.0Q1169 700 1260.5 758.0Q1352 816 1456 816H1556V800Q1550 800 1523.0 801.0Q1496 802 1469.5 790.0Q1443 778 1421 752Q1389 714 1368.0 644.0Q1347 574 1317 441L1306 392Q1280 266 1208.0 165.0Q1136 64 1013 16L1016 9Q1129 25 1203.0 70.0Q1277 115 1320.0 171.5Q1363 228 1415 319L1445 371Q1521 499 1595.0 593.5Q1669 688 1764.0 752.0Q1859 816 1969 816Q2047 816 2098.0 786.0Q2149 756 2172.5 710.0Q2196 664 2196 613Q2196 561 2170.5 527.5Q2145 494 2100 494Q2081 494 2069.0 505.0Q2057 516 2057 532Q2057 547 2067.0 558.0Q2077 569 2099 585Q2125 603 2139.5 620.0Q2154 637 2154 664Q2154 700 2131.0 731.5Q2108 763 2066.5 781.5Q2025 800 1973 800Q1875 800 1801.0 747.5Q1727 695 1672.5 616.0Q1618 537 1539 395L1526 371Q1454 242 1377.5 161.0Q1301 80 1184.0 33.5Q1067 -13 892 -16H812V0Q921 0 978.5 38.0Q1036 76 1060.0 138.5Q1084 201 1109 324L1126 403Q1144 489 1184.0 569.0Q1224 649 1281.5 708.0Q1339 767 1406 790V796Q1325 782 1261.0 728.0Q1197 674 1148.0 600.0Q1099 526 1029 400L1013 371Q941 242 864.5 161.0Q788 80 671.0 33.5Q554 -13 379 -16H299V0Q408 0 465.5 38.0Q523 76 547.0 138.5Q571 201 596 324L613 403Q632 491 662.0 545.5Q692 600 734.5 629.0Q777 658 838 672V679Q807 679 781.0 682.5Q755 686 709 695Q657 705 616.0 710.5Q575 716 523 716Q387 716 337.0 662.0Q287 608 280 532H260Q263 589 294.0 655.0Q325 721 386.5 768.5Q448 816 536 816Z" fill="#ffb6c1" transform="translate(280, 320) scale(0.022, -0.022)" style="filter: drop-shadow(0 0 8px rgba(255,182,193,0.5));"/>
  <path d="M109 -16Q55 -16 16.5 13.5Q-22 43 -22 108Q-22 172 35.5 238.5Q93 305 180.5 348.0Q268 391 349 391Q395 391 426.5 376.5Q458 362 458 331Q458 288 399.5 250.5Q341 213 261.0 190.5Q181 168 124 168L134 189Q181 189 237.5 212.0Q294 235 332.5 272.0Q371 309 371 347Q371 360 363.5 367.5Q356 375 342 375Q297 375 239.5 317.0Q182 259 140.5 181.0Q99 103 99 51Q99 9 144 9Q214 9 305.0 71.0Q396 133 472 231H492Q404 123 307.0 53.5Q210 -16 109 -16Z" fill="#ffb6c1" transform="translate(329, 320) scale(0.022, -0.022)" style="filter: drop-shadow(0 0 8px rgba(255,182,193,0.5));"/>
  <path d="M73 62Q73 49 80.5 41.5Q88 34 98 34Q118 34 150 65L322 231H339L162 61Q116 17 89.0 0.5Q62 -16 34 -16Q-5 -16 -28.0 8.5Q-51 33 -51 70Q-51 107 -30 139L323 700H464L86 99Q73 77 73 62Z" fill="#ffb6c1" transform="translate(340.8, 320) scale(0.022, -0.022)" style="filter: drop-shadow(0 0 8px rgba(255,182,193,0.5));"/>
  <path d="M124 -16Q51 -16 10.0 14.5Q-31 45 -31 96Q-31 139 0 188Q35 244 91.5 290.5Q148 337 213.0 364.0Q278 391 336 391Q378 391 401.5 363.0Q425 335 425 298Q425 261 402.5 234.5Q380 208 340 208Q299 208 276 231Q306 244 326.5 284.0Q347 324 347 354Q347 375 336 375Q302 375 246.0 322.0Q190 269 140 188Q89 106 89 54Q89 0 145 0Q203 0 281.0 62.5Q359 125 440 231H460Q371 118 289.5 51.0Q208 -16 124 -16Z" fill="#ffb6c1" transform="translate(348.6, 320) scale(0.022, -0.022)" style="filter: drop-shadow(0 0 8px rgba(255,182,193,0.5));"/>
  <path d="M-34 84Q-34 131 0 187Q35 243 93.0 289.5Q151 336 217.5 363.5Q284 391 343 391Q401 391 433.5 364.0Q466 337 466 291Q466 242 431 187Q396 131 338.0 84.5Q280 38 214.0 11.0Q148 -16 89 -16Q31 -16 -1.5 11.0Q-34 38 -34 84ZM74 23Q74 -6 95 -6Q126 -6 183.5 50.5Q241 107 291 187Q323 238 340.5 282.0Q358 326 358 352Q358 381 337 381Q306 381 248.5 324.0Q191 267 141 187Q109 136 91.5 92.5Q74 49 74 23ZM338 74Q282 74 254.0 108.5Q226 143 226 196Q226 253 255.0 309.0Q284 365 331 391L340 381Q297 355 269.5 301.5Q242 248 242 195Q242 148 266.0 118.5Q290 89 338 89Q402 89 459.0 127.0Q516 165 564 231H584Q534 159 470.0 116.5Q406 74 338 74Z" fill="#ffb6c1" transform="translate(359.4, 320) scale(0.022, -0.022)" style="filter: drop-shadow(0 0 8px rgba(255,182,193,0.5));"/>
  <path d="M143 231H150Q198 293 232.5 326.5Q267 360 299.0 375.5Q331 391 369 391Q403 391 427.0 372.0Q451 353 451 319Q451 280 419 231H426Q472 300 509.0 335.0Q546 370 577.0 380.5Q608 391 645 391Q689 391 715.5 368.0Q742 345 742 307Q742 268 715 225L637 99Q624 77 624 63Q624 52 631.5 45.5Q639 39 649 39Q669 39 701 70L870 231H890L713 61Q664 13 633.5 -1.5Q603 -16 572 -16Q539 -16 518.0 6.5Q497 29 497 64Q497 102 521 139L621 297Q633 318 633 332Q633 345 623.5 353.0Q614 361 597 361Q557 361 514.5 319.5Q472 278 438 222L299 0H159L350 306Q358 318 358 331Q358 344 349.0 352.5Q340 361 326 361Q287 361 233.5 305.0Q180 249 137 181L23 0H-117L117 375H257Z" fill="#ffb6c1" transform="translate(373.2, 320) scale(0.022, -0.022)" style="filter: drop-shadow(0 0 8px rgba(255,182,193,0.5));"/>
  <path d="M109 -16Q55 -16 16.5 13.5Q-22 43 -22 108Q-22 172 35.5 238.5Q93 305 180.5 348.0Q268 391 349 391Q395 391 426.5 376.5Q458 362 458 331Q458 288 399.5 250.5Q341 213 261.0 190.5Q181 168 124 168L134 189Q181 189 237.5 212.0Q294 235 332.5 272.0Q371 309 371 347Q371 360 363.5 367.5Q356 375 342 375Q297 375 239.5 317.0Q182 259 140.5 181.0Q99 103 99 51Q99 9 144 9Q214 9 305.0 71.0Q396 133 472 231H492Q404 123 307.0 53.5Q210 -16 109 -16Z" fill="#ffb6c1" transform="translate(394.8, 320) scale(0.022, -0.022)" style="filter: drop-shadow(0 0 8px rgba(255,182,193,0.5));"/>
  <path d="M155 62Q155 50 161.5 44.0Q168 38 178 38Q198 38 230 69L401 231H421L244 61Q198 17 171.0 0.5Q144 -16 116 -16Q77 -16 54.0 8.5Q31 33 31 70Q31 105 52 139L303 538H443L168 99Q155 77 155 62ZM433 375V360H117V375Z" fill="#ffb6c1" transform="translate(414.2, 320) scale(0.022, -0.022)" style="filter: drop-shadow(0 0 8px rgba(255,182,193,0.5));"/>
  <path d="M-34 84Q-34 131 0 187Q35 243 93.0 289.5Q151 336 217.5 363.5Q284 391 343 391Q401 391 433.5 364.0Q466 337 466 291Q466 242 431 187Q396 131 338.0 84.5Q280 38 214.0 11.0Q148 -16 89 -16Q31 -16 -1.5 11.0Q-34 38 -34 84ZM74 23Q74 -6 95 -6Q126 -6 183.5 50.5Q241 107 291 187Q323 238 340.5 282.0Q358 326 358 352Q358 381 337 381Q306 381 248.5 324.0Q191 267 141 187Q109 136 91.5 92.5Q74 49 74 23ZM338 74Q282 74 254.0 108.5Q226 143 226 196Q226 253 255.0 309.0Q284 365 331 391L340 381Q297 355 269.5 301.5Q242 248 242 195Q242 148 266.0 118.5Q290 89 338 89Q402 89 459.0 127.0Q516 165 564 231H584Q534 159 470.0 116.5Q406 74 338 74Z" fill="#ffb6c1" transform="translate(424.0, 320) scale(0.022, -0.022)" style="filter: drop-shadow(0 0 8px rgba(255,182,193,0.5));"/>
  <path d="M143 231H150Q198 293 232.5 326.5Q267 360 299.0 375.5Q331 391 369 391Q403 391 427.0 372.0Q451 353 451 319Q451 280 419 231H426Q472 300 509.0 335.0Q546 370 577.0 380.5Q608 391 645 391Q689 391 715.5 368.0Q742 345 742 307Q742 268 715 225L637 99Q624 77 624 63Q624 52 631.5 45.5Q639 39 649 39Q669 39 701 70L870 231H890L713 61Q664 13 633.5 -1.5Q603 -16 572 -16Q539 -16 518.0 6.5Q497 29 497 64Q497 102 521 139L621 297Q633 318 633 332Q633 345 623.5 353.0Q614 361 597 361Q557 361 514.5 319.5Q472 278 438 222L299 0H159L350 306Q358 318 358 331Q358 344 349.0 352.5Q340 361 326 361Q287 361 233.5 305.0Q180 249 137 181L23 0H-117L117 375H257Z" fill="#ffb6c1" transform="translate(438.0, 320) scale(0.022, -0.022)" style="filter: drop-shadow(0 0 8px rgba(255,182,193,0.5));"/>
  <path d="M251 375 78 99Q65 77 65 61Q65 49 71.5 43.0Q78 37 88 37Q113 37 163.0 84.5Q213 132 244 181L366 375H507L272 0Q218 -86 151.0 -176.5Q84 -267 33 -311Q-103 -425 -233 -425Q-287 -425 -316.5 -394.0Q-346 -363 -346 -318Q-346 -292 -332.5 -262.0Q-319 -232 -290.0 -206.5Q-261 -181 -219 -170Q-122 -144 74 -107Q245 -75 358.0 12.0Q471 99 559 231H579Q513 137 446.5 69.5Q380 2 289.0 -48.5Q198 -99 78 -123Q-51 -149 -128.5 -175.0Q-206 -201 -247.0 -240.0Q-288 -279 -288 -339Q-288 -364 -273.0 -386.5Q-258 -409 -227 -409Q-181 -409 -123.0 -353.0Q-65 -297 15 -180L202 94H195Q128 29 92.0 6.5Q56 -16 26 -16Q-13 -16 -36.0 8.5Q-59 33 -59 70Q-59 105 -38 139L111 375Z" fill="#ffb6c1" transform="translate(459.6, 320) scale(0.022, -0.022)" style="filter: drop-shadow(0 0 8px rgba(255,182,193,0.5));"/>
  <path d="M143 231H150Q198 293 232.5 326.5Q267 360 299.0 375.5Q331 391 369 391Q403 391 427.0 372.0Q451 353 451 319Q451 280 419 231H426Q472 300 509.0 335.0Q546 370 577.0 380.5Q608 391 645 391Q689 391 715.5 368.0Q742 345 742 307Q742 268 715 225L637 99Q624 77 624 63Q624 52 631.5 45.5Q639 39 649 39Q669 39 701 70L870 231H890L713 61Q664 13 633.5 -1.5Q603 -16 572 -16Q539 -16 518.0 6.5Q497 29 497 64Q497 102 521 139L621 297Q633 318 633 332Q633 345 623.5 353.0Q614 361 597 361Q557 361 514.5 319.5Q472 278 438 222L299 0H159L350 306Q358 318 358 331Q358 344 349.0 352.5Q340 361 326 361Q287 361 233.5 305.0Q180 249 137 181L23 0H-117L117 375H257Z" fill="#ffb6c1" transform="translate(480.7, 320) scale(0.022, -0.022)" style="filter: drop-shadow(0 0 8px rgba(255,182,193,0.5));"/>
  <path d="M367 61Q367 36 392 36Q412 36 444 67L616 231H636L458 60Q414 17 383.0 0.5Q352 -16 322 -16Q279 -16 258 12Q245 32 245 57Q245 76 252 96H245Q194 39 156.0 11.5Q118 -16 83 -16Q33 -16 1.5 11.5Q-30 39 -30 84Q-30 153 24.5 225.0Q79 297 163.0 344.0Q247 391 328 391Q355 391 366.0 381.0Q377 371 377 352Q377 326 368 300H375L413 375H553L380 99Q367 78 367 61ZM359 350Q359 375 341 375Q302 375 239.0 310.0Q176 245 127.0 160.5Q78 76 78 26Q78 11 82.5 5.5Q87 0 96 0Q133 0 196.5 66.0Q260 132 309.5 216.5Q359 301 359 350Z" fill="#ffb6c1" transform="translate(502.3, 320) scale(0.022, -0.022)" style="filter: drop-shadow(0 0 8px rgba(255,182,193,0.5));"/>
  <path d="M-188 -425Q-242 -425 -278.0 -395.0Q-314 -365 -314 -324Q-314 -249 -187 -203Q-175 -199 -86 -168Q60 -119 165.0 -74.5Q270 -30 383.5 45.5Q497 121 591 231H611Q525 126 419.5 52.0Q314 -22 214.0 -67.5Q114 -113 -28 -167Q-111 -197 -161 -219Q-207 -239 -231.5 -271.0Q-256 -303 -256 -339Q-256 -377 -234.0 -393.0Q-212 -409 -187 -409Q-152 -409 -118.5 -384.5Q-85 -360 -48.0 -313.0Q-11 -266 47 -180L206 54H199Q157 16 130.5 0.0Q104 -16 67 -16Q21 -16 -10.0 12.0Q-41 40 -41 84Q-41 148 17.0 220.5Q75 293 162.5 342.0Q250 391 330 391Q347 391 356.0 380.5Q365 370 365 352Q365 334 357 307H364L400 375H540L306 0Q232 -119 162.0 -208.5Q92 -298 2.0 -361.5Q-88 -425 -188 -425ZM346 346Q346 375 324 375Q286 375 224.0 309.0Q162 243 114.5 159.0Q67 75 67 29Q67 0 88 0Q129 0 190.5 67.0Q252 134 299.0 218.5Q346 303 346 346Z" fill="#ffb6c1" transform="translate(517.5, 320) scale(0.022, -0.022)" style="filter: drop-shadow(0 0 8px rgba(255,182,193,0.5));"/>
  <path d="M82 58Q82 46 87.5 40.0Q93 34 102 34Q122 34 154 65L331 231H351L174 61Q128 17 101.0 0.5Q74 -16 46 -16Q6 -16 -16.5 8.5Q-39 33 -39 70Q-39 106 -18 139L131 375H271L98 99Q82 74 82 58ZM200 489Q200 511 217.5 535.0Q235 559 262.5 575.5Q290 592 317 592Q337 592 348.0 582.0Q359 572 359 555Q359 533 341.5 509.0Q324 485 296.5 468.5Q269 452 243 452Q223 452 211.5 462.0Q200 472 200 489Z" fill="#ffb6c1" transform="translate(532.1, 320) scale(0.022, -0.022)" style="filter: drop-shadow(0 0 8px rgba(255,182,193,0.5));"/>
  <path d="M124 -16Q51 -16 10.0 14.5Q-31 45 -31 96Q-31 139 0 188Q35 244 91.5 290.5Q148 337 213.0 364.0Q278 391 336 391Q378 391 401.5 363.0Q425 335 425 298Q425 261 402.5 234.5Q380 208 340 208Q299 208 276 231Q306 244 326.5 284.0Q347 324 347 354Q347 375 336 375Q302 375 246.0 322.0Q190 269 140 188Q89 106 89 54Q89 0 145 0Q203 0 281.0 62.5Q359 125 440 231H460Q371 118 289.5 51.0Q208 -16 124 -16Z" fill="#ffb6c1" transform="translate(547.3, 320) scale(0.022, -0.022)" style="filter: drop-shadow(0 0 8px rgba(255,182,193,0.5));"/>
  <path d="M367 61Q367 36 392 36Q412 36 444 67L616 231H636L458 60Q414 17 383.0 0.5Q352 -16 322 -16Q279 -16 258 12Q245 32 245 57Q245 76 252 96H245Q194 39 156.0 11.5Q118 -16 83 -16Q33 -16 1.5 11.5Q-30 39 -30 84Q-30 153 24.5 225.0Q79 297 163.0 344.0Q247 391 328 391Q355 391 366.0 381.0Q377 371 377 352Q377 326 368 300H375L413 375H553L380 99Q367 78 367 61ZM359 350Q359 375 341 375Q302 375 239.0 310.0Q176 245 127.0 160.5Q78 76 78 26Q78 11 82.5 5.5Q87 0 96 0Q133 0 196.5 66.0Q260 132 309.5 216.5Q359 301 359 350Z" fill="#ffb6c1" transform="translate(562.1, 320) scale(0.022, -0.022)" style="filter: drop-shadow(0 0 8px rgba(255,182,193,0.5));"/>
  <path d="M124 -16Q51 -16 10.0 14.5Q-31 45 -31 96Q-31 139 0 188Q35 244 91.5 290.5Q148 337 213.0 364.0Q278 391 336 391Q378 391 401.5 363.0Q425 335 425 298Q425 261 402.5 234.5Q380 208 340 208Q299 208 276 231Q306 244 326.5 284.0Q347 324 347 354Q347 375 336 375Q302 375 246.0 322.0Q190 269 140 188Q89 106 89 54Q89 0 145 0Q203 0 281.0 62.5Q359 125 440 231H460Q371 118 289.5 51.0Q208 -16 124 -16Z" fill="#ffb6c1" transform="translate(577.3, 320) scale(0.022, -0.022)" style="filter: drop-shadow(0 0 8px rgba(255,182,193,0.5));"/>
  <path d="M109 -16Q55 -16 16.5 13.5Q-22 43 -22 108Q-22 172 35.5 238.5Q93 305 180.5 348.0Q268 391 349 391Q395 391 426.5 376.5Q458 362 458 331Q458 288 399.5 250.5Q341 213 261.0 190.5Q181 168 124 168L134 189Q181 189 237.5 212.0Q294 235 332.5 272.0Q371 309 371 347Q371 360 363.5 367.5Q356 375 342 375Q297 375 239.5 317.0Q182 259 140.5 181.0Q99 103 99 51Q99 9 144 9Q214 9 305.0 71.0Q396 133 472 231H492Q404 123 307.0 53.5Q210 -16 109 -16Z" fill="#ffb6c1" transform="translate(588.1, 320) scale(0.022, -0.022)" style="filter: drop-shadow(0 0 8px rgba(255,182,193,0.5));"/>
</svg>
