<svg xmlns="http://www.w3.org/2000/svg" viewBox="0 0 800 200" width="800" height="200">
  <defs>
    <linearGradient id="bg" x1="0%" y1="0%" x2="100%" y2="100%">
      <stop offset="0%" style="stop-color:#1a0533"/>
      <stop offset="50%" style="stop-color:#2d1b69"/>
      <stop offset="100%" style="stop-color:#1a0533"/>
    </linearGradient>
    
    <radialGradient id="bubble" cx="50%" cy="50%" r="50%">
      <stop offset="0%" style="stop-color:rgba(255,182,193,0.6)"/>
      <stop offset="100%" style="stop-color:rgba(135,206,235,0.2)"/>
    </radialGradient>
    
    <radialGradient id="glow" cx="50%" cy="50%" r="50%">
      <stop offset="0%" style="stop-color:rgba(168,85,247,0.8)"/>
      <stop offset="100%" style="stop-color:rgba(168,85,247,0)"/>
    </radialGradient>
    
    <style>
      @keyframes float-up {
        0% { transform: translateY(200px) scale(0.5); opacity: 0; }
        10% { opacity: 0.8; }
        90% { opacity: 0.6; }
        100% { transform: translateY(-50px) scale(1.2); opacity: 0; }
      }
      
      @keyframes fall-down {
        0% { transform: translateY(-30px) rotate(0deg) scale(0.8); opacity: 0; }
        10% { opacity: 0.9; }
        90% { opacity: 0.7; }
        100% { transform: translateY(230px) rotate(360deg) scale(0.6); opacity: 0; }
      }
      
      @keyframes twinkle {
        0%, 100% { opacity: 0.3; transform: scale(0.8); }
        50% { opacity: 1; transform: scale(1.2); }
      }
      
      @keyframes float-around {
        0% { transform: translate(0, 0); opacity: 0.6; }
        25% { transform: translate(30px, -20px); opacity: 0.9; }
        50% { transform: translate(-20px, 10px); opacity: 0.5; }
        75% { transform: translate(15px, 25px); opacity: 0.8; }
        100% { transform: translate(0, 0); opacity: 0.6; }
      }
      
      @keyframes pulse {
        0%, 100% { transform: scale(1); opacity: 0.6; }
        50% { transform: scale(1.5); opacity: 0.9; }
      }
      
      @keyframes shimmer {
        0% { opacity: 0; transform: translateX(-100px); }
        50% { opacity: 0.8; }
        100% { opacity: 0; transform: translateX(100px); }
      }
      
      .bubble {
        animation: float-up linear infinite;
      }
      
      .petal {
        animation: fall-down linear infinite;
      }
      
      .star {
        animation: twinkle ease-in-out infinite;
      }
      
      .sparkle {
        animation: float-around ease-in-out infinite;
      }
      
      .light {
        animation: pulse ease-in-out infinite;
      }
      
      .shimmer-line {
        animation: shimmer ease-in-out infinite;
      }
    </style>
  </defs>
  
  <!-- Background -->
  <rect width="800" height="200" fill="url(#bg)"/>
  
  <!-- Shimmer effect -->
  <line x1="0" y1="100" x2="800" y2="100" stroke="rgba(255,182,193,0.1)" stroke-width="1" class="shimmer-line" style="animation-duration: 4s;"/>
  <line x1="0" y1="60" x2="800" y2="60" stroke="rgba(78,205,196,0.1)" stroke-width="1" class="shimmer-line" style="animation-duration: 5s; animation-delay: 1s;"/>
  <line x1="0" y1="140" x2="800" y2="140" stroke="rgba(168,85,247,0.1)" stroke-width="1" class="shimmer-line" style="animation-duration: 6s; animation-delay: 2s;"/>
  
  <!-- Bubbles -->
  <circle cx="80" cy="200" r="12" fill="url(#bubble)" class="bubble" style="animation-duration: 6s; animation-delay: 0s;"/>
  <circle cx="200" cy="200" r="8" fill="url(#bubble)" class="bubble" style="animation-duration: 8s; animation-delay: 1s;"/>
  <circle cx="350" cy="200" r="15" fill="url(#bubble)" class="bubble" style="animation-duration: 7s; animation-delay: 2s;"/>
  <circle cx="500" cy="200" r="10" fill="url(#bubble)" class="bubble" style="animation-duration: 9s; animation-delay: 0.5s;"/>
  <circle cx="650" cy="200" r="13" fill="url(#bubble)" class="bubble" style="animation-duration: 6.5s; animation-delay: 3s;"/>
  <circle cx="750" cy="200" r="9" fill="url(#bubble)" class="bubble" style="animation-duration: 7.5s; animation-delay: 1.5s;"/>
  <circle cx="150" cy="200" r="11" fill="url(#bubble)" class="bubble" style="animation-duration: 8.5s; animation-delay: 2.5s;"/>
  <circle cx="450" cy="200" r="7" fill="url(#bubble)" class="bubble" style="animation-duration: 5.5s; animation-delay: 4s;"/>
  
  <!-- Petals -->
  <ellipse cx="120" cy="0" rx="8" ry="12" fill="#ffb6c1" opacity="0.8" class="petal" style="animation-duration: 8s; animation-delay: 0s;" transform="rotate(30, 120, 0)"/>
  <ellipse cx="280" cy="0" rx="10" ry="14" fill="#ff69b4" opacity="0.7" class="petal" style="animation-duration: 10s; animation-delay: 2s;" transform="rotate(-20, 280, 0)"/>
  <ellipse cx="420" cy="0" rx="7" ry="11" fill="#ffc0cb" opacity="0.9" class="petal" style="animation-duration: 9s; animation-delay: 1s;" transform="rotate(45, 420, 0)"/>
  <ellipse cx="580" cy="0" rx="9" ry="13" fill="#ffb6c1" opacity="0.6" class="petal" style="animation-duration: 11s; animation-delay: 3s;" transform="rotate(-35, 580, 0)"/>
  <ellipse cx="720" cy="0" rx="11" ry="15" fill="#ff69b4" opacity="0.8" class="petal" style="animation-duration: 7s; animation-delay: 1.5s;" transform="rotate(25, 720, 0)"/>
  <ellipse cx="200" cy="0" rx="6" ry="10" fill="#ffc0cb" opacity="0.7" class="petal" style="animation-duration: 12s; animation-delay: 4s;" transform="rotate(-40, 200, 0)"/>
  <ellipse cx="660" cy="0" rx="8" ry="12" fill="#ffb6c1" opacity="0.9" class="petal" style="animation-duration: 8.5s; animation-delay: 2.5s;" transform="rotate(50, 660, 0)"/>
  
  <!-- Stars -->
  <polygon points="50,30 53,40 63,40 55,46 58,56 50,50 42,56 45,46 37,40 47,40" fill="#ffd700" class="star" style="animation-duration: 2s; animation-delay: 0s;"/>
  <polygon points="250,50 253,60 263,60 255,66 258,76 250,70 242,76 245,66 237,60 247,60" fill="#ffffff" class="star" style="animation-duration: 1.5s; animation-delay: 0.5s;"/>
  <polygon points="450,25 453,35 463,35 455,41 458,51 450,45 442,51 445,41 437,35 447,35" fill="#ffd700" class="star" style="animation-duration: 2.5s; animation-delay: 1s;"/>
  <polygon points="650,45 653,55 663,55 655,61 658,71 650,65 642,71 645,61 637,55 647,55" fill="#ffffff" class="star" style="animation-duration: 1.8s; animation-delay: 0.3s;"/>
  <polygon points="350,70 353,80 363,80 355,86 358,96 350,90 342,96 345,86 337,80 347,80" fill="#ffd700" class="star" style="animation-duration: 2.2s; animation-delay: 1.5s;"/>
  <polygon points="550,35 553,45 563,45 555,51 558,61 550,55 542,61 545,51 537,45 547,45" fill="#ffffff" class="star" style="animation-duration: 1.7s; animation-delay: 0.8s;"/>
  
  <!-- Sparkles -->
  <circle cx="100" cy="80" r="3" fill="url(#glow)" class="sparkle" style="animation-duration: 5s; animation-delay: 0s;"/>
  <circle cx="300" cy="120" r="4" fill="url(#glow)" class="sparkle" style="animation-duration: 6s; animation-delay: 1s;"/>
  <circle cx="500" cy="60" r="3" fill="url(#glow)" class="sparkle" style="animation-duration: 4s; animation-delay: 2s;"/>
  <circle cx="700" cy="100" r="5" fill="url(#glow)" class="sparkle" style="animation-duration: 7s; animation-delay: 0.5s;"/>
  <circle cx="200" cy="150" r="4" fill="url(#glow)" class="sparkle" style="animation-duration: 5.5s; animation-delay: 3s;"/>
  <circle cx="600" cy="40" r="3" fill="url(#glow)" class="sparkle" style="animation-duration: 6.5s; animation-delay: 1.5s;"/>
  <circle cx="400" cy="170" r="4" fill="url(#glow)" class="sparkle" style="animation-duration: 4.5s; animation-delay: 2.5s;"/>
  
  <!-- Lights -->
  <circle cx="150" cy="100" r="2" fill="#ff6b9d" class="light" style="animation-duration: 3s; animation-delay: 0s;"/>
  <circle cx="350" cy="80" r="2" fill="#4ecdc4" class="light" style="animation-duration: 2.5s; animation-delay: 0.5s;"/>
  <circle cx="550" cy="120" r="2" fill="#a855f7" class="light" style="animation-duration: 3.5s; animation-delay: 1s;"/>
  <circle cx="750" cy="90" r="2" fill="#ff6b9d" class="light" style="animation-duration: 2.8s; animation-delay: 1.5s;"/>
  <circle cx="250" cy="140" r="2" fill="#4ecdc4" class="light" style="animation-duration: 3.2s; animation-delay: 2s;"/>
  <circle cx="650" cy="70" r="2" fill="#a855f7" class="light" style="animation-duration: 2.7s; animation-delay: 0.8s;"/>
  
  <!-- Text (Freestyle Script font) -->
  <!-- Line 1: *** Hi there, I'm jing1312! *** -->
  <path d="M616 848Q609 784 559 748Q475 832 410 879L387 864Q385 830 424 672Q393 662 365 662Q336 662 307 672Q341 795 344 866L330 877Q272 834 188 745Q129 780 123 842Q201 860 311 909L317 934Q220 982 127 1004Q127 1073 184 1104Q254 1026 334 969L350 981Q341 1052 309 1176Q337 1188 369 1188Q402 1188 424 1176Q399 1079 391 981L414 963Q538 1073 557 1098Q608 1070 616 1004Q519 978 432 928V913Q556 860 616 848Z" fill="#ffffff" transform="translate(139.1, 130) scale(0.029297, -0.029297)" style="filter: drop-shadow(0 0 8px rgba(168,85,247,0.5));"/>
  <path d="M616 848Q609 784 559 748Q475 832 410 879L387 864Q385 830 424 672Q393 662 365 662Q336 662 307 672Q341 795 344 866L330 877Q272 834 188 745Q129 780 123 842Q201 860 311 909L317 934Q220 982 127 1004Q127 1073 184 1104Q254 1026 334 969L350 981Q341 1052 309 1176Q337 1188 369 1188Q402 1188 424 1176Q399 1079 391 981L414 963Q538 1073 557 1098Q608 1070 616 1004Q519 978 432 928V913Q556 860 616 848Z" fill="#ffffff" transform="translate(161.0, 130) scale(0.029297, -0.029297)" style="filter: drop-shadow(0 0 8px rgba(168,85,247,0.5));"/>
  <path d="M616 848Q609 784 559 748Q475 832 410 879L387 864Q385 830 424 672Q393 662 365 662Q336 662 307 672Q341 795 344 866L330 877Q272 834 188 745Q129 780 123 842Q201 860 311 909L317 934Q220 982 127 1004Q127 1073 184 1104Q254 1026 334 969L350 981Q341 1052 309 1176Q337 1188 369 1188Q402 1188 424 1176Q399 1079 391 981L414 963Q538 1073 557 1098Q608 1070 616 1004Q519 978 432 928V913Q556 860 616 848Z" fill="#ffffff" transform="translate(183.0, 130) scale(0.029297, -0.029297)" style="filter: drop-shadow(0 0 8px rgba(168,85,247,0.5));"/>
  <path d="M1700 182Q1566 -31 1393 -31Q1249 -31 1164.0 104.0Q1079 239 1079 483Q1079 552 1087 680Q1061 674 1026 674Q1004 674 978 683Q952 692 938 692Q931 692 911 688Q930 598 930 483Q930 264 804.0 118.5Q678 -27 481 -27Q239 -27 145 166L252 260L266 250Q319 16 516 16Q650 16 730.5 112.0Q811 208 811 371Q811 409 798 529Q786 650 786 737Q786 996 870 1157Q858 1153 811 1131Q765 1110 729 1110Q651 1110 572 1185Q494 1260 428 1260Q354 1260 290.5 1189.0Q227 1118 227 1028Q227 951 274.0 900.5Q321 850 389 850Q439 850 482.5 879.5Q526 909 549 963L575 954Q550 862 485.0 811.0Q420 760 350 760Q272 760 219.0 818.5Q166 877 166 963Q166 1103 264.5 1218.0Q363 1333 489 1333Q593 1333 682 1241Q748 1176 803 1176Q857 1176 902 1227L985 1321L1016 1300Q877 1165 877 938Q877 838 903 735Q949 764 987 764Q1030 764 1100 729Q1151 1010 1280.5 1169.5Q1410 1329 1554 1329Q1645 1329 1688 1272L1587 1169Q1543 1264 1481 1264Q1383 1264 1286.5 1092.5Q1190 921 1190 616Q1190 360 1265.0 206.5Q1340 53 1450 53Q1571 53 1669 207Z" fill="#ffffff" transform="translate(205.4, 130) scale(0.029297, -0.029297)" style="filter: drop-shadow(0 0 8px rgba(168,85,247,0.5));"/>
  <path d="M252 662 182 573 111 662 182 748ZM424 158Q367 72 307.0 26.0Q247 -20 199 -20Q145 -20 131.0 9.0Q117 38 117 111V293Q86 214 27 139L-4 164Q89 293 117 414L217 467V150Q217 91 222.5 72.0Q228 53 250 53Q295 53 395 184Z" fill="#ffffff" transform="translate(253.5, 130) scale(0.029297, -0.029297)" style="filter: drop-shadow(0 0 8px rgba(168,85,247,0.5));"/>
  <path d="M487 160Q374 -20 248 -20Q188 -20 173.0 8.5Q158 37 158 100V342Q91 227 27 141L-6 164Q31 219 57.0 260.0Q83 301 120.5 367.5Q158 434 158 442V852L258 950V569L412 811L451 782L258 477V170Q258 100 264.0 76.5Q270 53 297 53Q365 53 459 186Z" fill="#ffffff" transform="translate(265.3, 130) scale(0.029297, -0.029297)" style="filter: drop-shadow(0 0 8px rgba(168,85,247,0.5));"/>
  <path d="M766 158Q644 -20 530 -20Q496 -20 478.5 5.0Q461 30 461 111V330Q461 387 416 387Q381 387 341.0 352.5Q301 318 269.5 258.5Q238 199 238 180V27L137 -37V315Q85 213 27 139L-4 164Q21 201 42.0 235.0Q63 269 100.0 342.0Q137 415 137 430V862Q137 1004 207.0 1095.0Q277 1186 371 1186Q483 1186 483 1049Q483 870 238 479V291Q310 386 361.0 423.5Q412 461 469 461Q561 461 561 330V129Q561 53 590 53Q642 53 735 184ZM238 565Q338 743 376.0 847.5Q414 952 414 1038Q414 1088 394.0 1120.5Q374 1153 342 1153Q294 1153 266.0 1091.0Q238 1029 238 920Z" fill="#ffffff" transform="translate(278.5, 130) scale(0.029297, -0.029297)" style="filter: drop-shadow(0 0 8px rgba(168,85,247,0.5));"/>
  <path d="M573 158Q514 62 444.0 18.5Q374 -25 260 -25Q177 -25 128.5 24.5Q80 74 80 164Q80 188 84 215Q48 169 29 141L-4 164Q126 348 196.0 405.5Q266 463 340 463Q381 463 407.5 439.0Q434 415 434 377Q434 247 205 121Q236 49 334 49Q381 49 438.5 83.0Q496 117 543 182ZM186 160Q352 241 352 340Q352 370 335.5 389.0Q319 408 291 408Q240 408 205.0 361.0Q170 314 170 248Q170 212 178 187Q186 163 186 160Z" fill="#ffffff" transform="translate(299.7, 130) scale(0.029297, -0.029297)" style="filter: drop-shadow(0 0 8px rgba(168,85,247,0.5));"/>
  <path d="M530 158Q417 -20 303 -20Q186 -20 186 113Q186 221 289 348Q271 344 225 344Q195 344 162 356Q111 245 27 139L-4 164Q90 300 160 473Q256 428 311 428Q363 428 401 469L418 457Q357 381 320.0 303.5Q283 226 283 133Q283 104 302.0 78.5Q321 53 344 53Q382 53 417.0 84.0Q452 115 500 182Z" fill="#ffffff" transform="translate(315.3, 130) scale(0.029297, -0.029297)" style="filter: drop-shadow(0 0 8px rgba(168,85,247,0.5));"/>
  <path d="M573 158Q514 62 444.0 18.5Q374 -25 260 -25Q177 -25 128.5 24.5Q80 74 80 164Q80 188 84 215Q48 169 29 141L-4 164Q126 348 196.0 405.5Q266 463 340 463Q381 463 407.5 439.0Q434 415 434 377Q434 247 205 121Q236 49 334 49Q381 49 438.5 83.0Q496 117 543 182ZM186 160Q352 241 352 340Q352 370 335.5 389.0Q319 408 291 408Q240 408 205.0 361.0Q170 314 170 248Q170 212 178 187Q186 163 186 160Z" fill="#ffffff" transform="translate(329.7, 130) scale(0.029297, -0.029297)" style="filter: drop-shadow(0 0 8px rgba(168,85,247,0.5));"/>
  <path d="M281 49Q219 -103 86 -197L66 -174Q129 -111 170 -31L98 47L186 147Z" fill="#ffffff" transform="translate(345.3, 130) scale(0.029297, -0.029297)" style="filter: drop-shadow(0 0 8px rgba(168,85,247,0.5));"/>
  <path d="M797 989Q851 1012 885 1012Q939 1012 972.5 976.5Q1006 941 1006 885Q1006 752 866 649Q924 525 924 414Q924 239 789.5 109.5Q655 -20 455 -20Q301 -20 199.5 54.5Q98 129 70 268Q122 307 217 317L223 299Q209 276 209 240Q209 149 288.5 86.0Q368 23 481 23Q621 23 717.0 120.5Q813 218 813 356Q813 456 741 594Q700 588 651 588Q496 588 400.5 672.0Q305 756 305 889Q305 1067 478.5 1199.5Q652 1332 958 1331L967 1307Q853 1272 791.0 1193.5Q729 1115 729 1024Q729 904 846 688Q936 752 936 846Q936 899 906.5 934.0Q877 969 844 969Q832 969 801 963ZM854 1290Q642 1266 533.0 1170.0Q424 1074 424 918Q424 789 494.0 710.0Q564 631 678 631L717 633Q639 815 639 930Q639 1147 854 1290Z" fill="#ffffff" transform="translate(357.1, 130) scale(0.029297, -0.029297)" style="filter: drop-shadow(0 0 8px rgba(168,85,247,0.5));"/>
  <path d="M121 895 84 1198Q76 1268 76 1296Q76 1335 93.5 1360.5Q111 1386 139 1386Q201 1386 201 1296Q201 1254 193 1194L152 895Z" fill="#ffffff" transform="translate(388.4, 130) scale(0.029297, -0.029297)" style="filter: drop-shadow(0 0 8px rgba(168,85,247,0.5));"/>
  <path d="M1022 158Q905 -20 786 -20Q752 -20 733.5 2.5Q715 25 715 111V344Q715 381 686 381Q669 381 650.0 367.5Q631 354 609.5 327.0Q588 300 552.0 238.5Q516 177 516 168V10L416 -39V326Q416 371 385 371Q359 371 328.0 343.0Q297 315 257.0 246.0Q217 177 217 168V10L117 -39V293Q86 214 27 139L-4 164Q84 283 117 420L217 467V260Q331 455 432 455Q474 455 495.0 422.0Q516 389 516 260Q579 369 627.5 412.0Q676 455 729 455Q815 455 815 338V154Q815 84 822.0 68.5Q829 53 846 53Q891 53 991 184Z" fill="#ffffff" transform="translate(396.4, 130) scale(0.029297, -0.029297)" style="filter: drop-shadow(0 0 8px rgba(168,85,247,0.5));"/>
  <path d="M260 670 190 575 121 670 190 762ZM459 176Q339 -18 236 -16V-326Q236 -401 225.0 -469.5Q214 -538 153.5 -581.5Q93 -625 35 -625Q-79 -625 -111 -516Q-73 -481 -20 -453L-12 -467Q-18 -485 -18 -498Q-18 -535 2.5 -558.5Q23 -582 59 -582Q111 -582 123.0 -527.0Q135 -472 135 -297V322Q104 247 33 145L4 172Q91 310 133 424L236 475V41Q282 41 322.5 75.0Q363 109 428 203Z" fill="#ffffff" transform="translate(425.7, 130) scale(0.029297, -0.029297)" style="filter: drop-shadow(0 0 8px rgba(168,85,247,0.5));"/>
  <path d="M252 662 182 573 111 662 182 748ZM424 158Q367 72 307.0 26.0Q247 -20 199 -20Q145 -20 131.0 9.0Q117 38 117 111V293Q86 214 27 139L-4 164Q89 293 117 414L217 467V150Q217 91 222.5 72.0Q228 53 250 53Q295 53 395 184Z" fill="#ffffff" transform="translate(437.6, 130) scale(0.029297, -0.029297)" style="filter: drop-shadow(0 0 8px rgba(168,85,247,0.5));"/>
  <path d="M723 158Q602 -20 492 -20Q456 -20 437.0 3.5Q418 27 418 111V340Q418 393 385 393Q369 393 351.5 381.0Q334 369 314.0 345.5Q294 322 257.5 267.5Q221 213 221 207V27L121 -37V299Q90 220 27 139L-4 164Q97 306 123 420L221 467V281Q294 387 339.0 423.0Q384 459 430 459Q472 459 495.0 429.0Q518 399 518 281V147Q518 93 522.5 73.0Q527 53 547 53Q596 53 692 184Z" fill="#ffffff" transform="translate(448.9, 130) scale(0.029297, -0.029297)" style="filter: drop-shadow(0 0 8px rgba(168,85,247,0.5));"/>
  <path d="M778 176Q666 -3 575 -14V-330Q575 -457 495.0 -535.5Q415 -614 299 -614Q221 -614 156.0 -578.5Q91 -543 76 -492L160 -412L174 -426Q170 -439 170 -453Q170 -504 210.5 -543.0Q251 -582 309 -582Q387 -582 431.0 -521.5Q475 -461 475 -352V98Q378 -25 266 -25Q183 -25 130.5 35.0Q78 95 78 170V211L29 141L-4 164Q116 334 192.0 395.5Q268 457 344 457Q427 457 475 410L575 471V45Q645 51 748 201ZM475 166V354Q429 424 352 424Q280 424 231.0 366.0Q182 308 182 225Q182 147 218.0 103.0Q254 59 317 59Q385 59 430.0 104.5Q475 150 475 166Z" fill="#ffffff" transform="translate(468.9, 130) scale(0.029297, -0.029297)" style="filter: drop-shadow(0 0 8px rgba(168,85,247,0.5));"/>
  <path d="M432 16 326 -41V774Q243 716 145 694L125 731Q329 793 418 983L432 973Z" fill="#ffffff" transform="translate(490.1, 130) scale(0.029297, -0.029297)" style="filter: drop-shadow(0 0 8px rgba(168,85,247,0.5));"/>
  <path d="M489 494Q690 435 690 270Q690 157 581.0 62.0Q472 -33 328 -33Q211 -33 134.0 34.5Q57 102 57 188Q57 251 99.0 295.5Q141 340 201 340Q304 340 354 227L330 209Q296 256 240 256Q199 256 169.0 226.0Q139 196 139 154Q139 97 197.5 53.5Q256 10 336 10Q436 10 508.0 82.5Q580 155 580 256Q580 339 527.0 401.0Q474 463 416 463Q393 463 371 448Q350 434 322 434Q291 434 291 451Q291 488 410 492Q551 576 551 709Q551 790 493.5 844.5Q436 899 348 899Q267 899 213.5 849.5Q160 800 160 735Q160 695 191.0 662.0Q222 629 260 629Q324 629 356 705L379 694Q335 555 229 555Q171 555 134.5 592.0Q98 629 98 692Q98 798 187.0 876.0Q276 954 403 954Q513 954 580.0 896.0Q647 838 647 743Q647 602 489 494Z" fill="#ffffff" transform="translate(512.0, 130) scale(0.029297, -0.029297)" style="filter: drop-shadow(0 0 8px rgba(168,85,247,0.5));"/>
  <path d="M432 16 326 -41V774Q243 716 145 694L125 731Q329 793 418 983L432 973Z" fill="#ffffff" transform="translate(533.9, 130) scale(0.029297, -0.029297)" style="filter: drop-shadow(0 0 8px rgba(168,85,247,0.5));"/>
  <path d="M692 207Q671 96 592.0 32.5Q513 -31 428 -31Q342 -31 276 27Q238 61 199 61Q122 61 106 -27H78Q83 121 182.5 237.5Q282 354 369 411Q456 469 494.0 537.0Q532 605 532 670Q532 759 472.5 829.0Q413 899 326 899Q242 899 185.5 845.5Q129 792 129 709Q129 649 159.5 612.0Q190 575 236 575Q277 575 303.5 602.0Q330 629 330 664V682L352 690Q367 664 367 627Q367 565 326.5 528.5Q286 492 221 492Q154 492 111.0 541.0Q68 590 68 668Q68 788 157.0 871.0Q246 954 377 954Q490 954 570.5 881.5Q651 809 651 707Q651 539 421 388Q191 237 147 92Q200 133 270 133Q321 133 401 106Q482 80 506 80Q558 80 593.0 108.5Q628 137 666 219Z" fill="#ffffff" transform="translate(555.8, 130) scale(0.029297, -0.029297)" style="filter: drop-shadow(0 0 8px rgba(168,85,247,0.5));"/>
  <path d="M387 1163Q339 1019 334 801L319 215H274L258 788Q252 982 203 1161Q253 1182 301 1182Q338 1182 387 1163ZM385 41 299 -57 215 41 297 145Z" fill="#ffffff" transform="translate(577.8, 130) scale(0.029297, -0.029297)" style="filter: drop-shadow(0 0 8px rgba(168,85,247,0.5));"/>
  <path d="M616 848Q609 784 559 748Q475 832 410 879L387 864Q385 830 424 672Q393 662 365 662Q336 662 307 672Q341 795 344 866L330 877Q272 834 188 745Q129 780 123 842Q201 860 311 909L317 934Q220 982 127 1004Q127 1073 184 1104Q254 1026 334 969L350 981Q341 1052 309 1176Q337 1188 369 1188Q402 1188 424 1176Q399 1079 391 981L414 963Q538 1073 557 1098Q608 1070 616 1004Q519 978 432 928V913Q556 860 616 848Z" fill="#ffffff" transform="translate(595.1, 130) scale(0.029297, -0.029297)" style="filter: drop-shadow(0 0 8px rgba(168,85,247,0.5));"/>
  <path d="M616 848Q609 784 559 748Q475 832 410 879L387 864Q385 830 424 672Q393 662 365 662Q336 662 307 672Q341 795 344 866L330 877Q272 834 188 745Q129 780 123 842Q201 860 311 909L317 934Q220 982 127 1004Q127 1073 184 1104Q254 1026 334 969L350 981Q341 1052 309 1176Q337 1188 369 1188Q402 1188 424 1176Q399 1079 391 981L414 963Q538 1073 557 1098Q608 1070 616 1004Q519 978 432 928V913Q556 860 616 848Z" fill="#ffffff" transform="translate(617.0, 130) scale(0.029297, -0.029297)" style="filter: drop-shadow(0 0 8px rgba(168,85,247,0.5));"/>
  <path d="M616 848Q609 784 559 748Q475 832 410 879L387 864Q385 830 424 672Q393 662 365 662Q336 662 307 672Q341 795 344 866L330 877Q272 834 188 745Q129 780 123 842Q201 860 311 909L317 934Q220 982 127 1004Q127 1073 184 1104Q254 1026 334 969L350 981Q341 1052 309 1176Q337 1188 369 1188Q402 1188 424 1176Q399 1079 391 981L414 963Q538 1073 557 1098Q608 1070 616 1004Q519 978 432 928V913Q556 860 616 848Z" fill="#ffffff" transform="translate(639.0, 130) scale(0.029297, -0.029297)" style="filter: drop-shadow(0 0 8px rgba(168,85,247,0.5));"/>
  
  <!-- Line 2: *** Welcome to my magical space *** -->
  <path d="M616 848Q609 784 559 748Q475 832 410 879L387 864Q385 830 424 672Q393 662 365 662Q336 662 307 672Q341 795 344 866L330 877Q272 834 188 745Q129 780 123 842Q201 860 311 909L317 934Q220 982 127 1004Q127 1073 184 1104Q254 1026 334 969L350 981Q341 1052 309 1176Q337 1188 369 1188Q402 1188 424 1176Q399 1079 391 981L414 963Q538 1073 557 1098Q608 1070 616 1004Q519 978 432 928V913Q556 860 616 848Z" fill="#ffb6c1" transform="translate(253.6, 180) scale(0.014648, -0.014648)" style="filter: drop-shadow(0 0 8px rgba(255,182,193,0.5));"/>
  <path d="M616 848Q609 784 559 748Q475 832 410 879L387 864Q385 830 424 672Q393 662 365 662Q336 662 307 672Q341 795 344 866L330 877Q272 834 188 745Q129 780 123 842Q201 860 311 909L317 934Q220 982 127 1004Q127 1073 184 1104Q254 1026 334 969L350 981Q341 1052 309 1176Q337 1188 369 1188Q402 1188 424 1176Q399 1079 391 981L414 963Q538 1073 557 1098Q608 1070 616 1004Q519 978 432 928V913Q556 860 616 848Z" fill="#ffb6c1" transform="translate(264.5, 180) scale(0.014648, -0.014648)" style="filter: drop-shadow(0 0 8px rgba(255,182,193,0.5));"/>
  <path d="M616 848Q609 784 559 748Q475 832 410 879L387 864Q385 830 424 672Q393 662 365 662Q336 662 307 672Q341 795 344 866L330 877Q272 834 188 745Q129 780 123 842Q201 860 311 909L317 934Q220 982 127 1004Q127 1073 184 1104Q254 1026 334 969L350 981Q341 1052 309 1176Q337 1188 369 1188Q402 1188 424 1176Q399 1079 391 981L414 963Q538 1073 557 1098Q608 1070 616 1004Q519 978 432 928V913Q556 860 616 848Z" fill="#ffb6c1" transform="translate(275.5, 180) scale(0.014648, -0.014648)" style="filter: drop-shadow(0 0 8px rgba(255,182,193,0.5));"/>
  <path d="M1616 1049Q1593 1031 1538 1014Q1581 849 1581 702Q1581 403 1458.5 190.0Q1336 -23 1182 -23Q1061 -23 985 104Q906 -25 786 -25Q655 -25 562.0 117.5Q469 260 469 477Q469 802 707 1157Q670 1145 627 1145Q545 1145 413 1215Q310 1270 260 1270Q203 1270 165.0 1228.0Q127 1186 127 1126Q127 1076 161.0 1041.0Q195 1006 242 1006Q285 1006 314.5 1036.0Q344 1066 344 1106Q344 1115 340 1137L365 1145Q385 1117 385 1069Q385 1008 346.0 970.0Q307 932 248 932Q180 932 133.0 982.0Q86 1032 86 1112Q86 1213 158.0 1278.0Q230 1343 346 1343Q392 1343 441.0 1329.0Q490 1315 563 1264Q637 1214 676 1214Q734 1214 821 1305L842 1284Q602 974 602 506Q602 289 663.5 165.0Q725 41 821 41Q877 41 923.0 84.5Q969 128 969 176V948L1087 1010V219Q1087 135 1123.0 84.0Q1159 33 1214 33Q1327 33 1419.0 206.0Q1511 379 1511 623Q1511 819 1432 989H1425Q1271 989 1181.5 1057.5Q1092 1126 1092 1221Q1092 1272 1124.0 1303.5Q1156 1335 1208 1335Q1297 1335 1378.5 1263.0Q1460 1191 1522 1053H1524Q1543 1053 1595 1087ZM1411 1030Q1305 1235 1208 1235Q1161 1235 1161 1182Q1161 1129 1228.0 1079.5Q1295 1030 1391 1030Z" fill="#ffb6c1" transform="translate(286.6, 180) scale(0.014648, -0.014648)" style="filter: drop-shadow(0 0 8px rgba(255,182,193,0.5));"/>
  <path d="M573 158Q514 62 444.0 18.5Q374 -25 260 -25Q177 -25 128.5 24.5Q80 74 80 164Q80 188 84 215Q48 169 29 141L-4 164Q126 348 196.0 405.5Q266 463 340 463Q381 463 407.5 439.0Q434 415 434 377Q434 247 205 121Q236 49 334 49Q381 49 438.5 83.0Q496 117 543 182ZM186 160Q352 241 352 340Q352 370 335.5 389.0Q319 408 291 408Q240 408 205.0 361.0Q170 314 170 248Q170 212 178 187Q186 163 186 160Z" fill="#ffb6c1" transform="translate(311.6, 180) scale(0.014648, -0.014648)" style="filter: drop-shadow(0 0 8px rgba(255,182,193,0.5));"/>
  <path d="M-4 164Q15 191 30.5 214.5Q46 238 62.0 268.5Q78 299 97.5 348.5Q117 398 117 414V801Q117 944 207.0 1060.0Q297 1176 395 1176Q447 1176 476.5 1140.0Q506 1104 506 1044Q506 964 440.0 828.5Q374 693 217 449V160Q217 98 222.0 75.5Q227 53 248 53Q293 53 393 184L424 158Q305 -20 188 -20Q153 -20 135.0 3.5Q117 27 117 111V293Q86 214 27 139ZM217 522Q351 742 393.5 841.5Q436 941 436 1014Q436 1126 367 1126Q304 1126 260.5 1055.0Q217 984 217 862Z" fill="#ffb6c1" transform="translate(319.4, 180) scale(0.014648, -0.014648)" style="filter: drop-shadow(0 0 8px rgba(255,182,193,0.5));"/>
  <path d="M553 158Q441 -20 264 -20Q178 -20 125.0 36.5Q72 93 72 195L74 203L29 141L-4 164Q144 382 207.5 422.5Q271 463 334 463Q438 463 485 391Q471 336 420 311Q376 420 291 420Q241 420 200.5 374.0Q160 328 160 256Q160 173 208.0 113.0Q256 53 330 53Q432 53 520 182Z" fill="#ffb6c1" transform="translate(325.0, 180) scale(0.014648, -0.014648)" style="filter: drop-shadow(0 0 8px rgba(255,182,193,0.5));"/>
  <path d="M-6 164Q124 349 207.0 403.0Q290 457 381 457Q468 457 517.5 411.0Q567 365 567 283Q567 166 473.0 69.5Q379 -27 254 -27Q173 -27 124.5 21.5Q76 70 76 145Q76 185 82 217Q67 200 27 139ZM319 39Q395 39 440.0 94.0Q485 149 485 240Q485 319 443.0 363.5Q401 408 332 408Q259 408 215.5 355.0Q172 302 172 207Q172 39 319 39ZM680 158Q600 44 529.0 7.5Q458 -29 387 -37L379 -14Q544 23 647 182Z" fill="#ffb6c1" transform="translate(332.5, 180) scale(0.014648, -0.014648)" style="filter: drop-shadow(0 0 8px rgba(255,182,193,0.5));"/>
  <path d="M1022 158Q905 -20 786 -20Q752 -20 733.5 2.5Q715 25 715 111V344Q715 381 686 381Q669 381 650.0 367.5Q631 354 609.5 327.0Q588 300 552.0 238.5Q516 177 516 168V10L416 -39V326Q416 371 385 371Q359 371 328.0 343.0Q297 315 257.0 246.0Q217 177 217 168V10L117 -39V293Q86 214 27 139L-4 164Q84 283 117 420L217 467V260Q331 455 432 455Q474 455 495.0 422.0Q516 389 516 260Q579 369 627.5 412.0Q676 455 729 455Q815 455 815 338V154Q815 84 822.0 68.5Q829 53 846 53Q891 53 991 184Z" fill="#ffb6c1" transform="translate(341.9, 180) scale(0.014648, -0.014648)" style="filter: drop-shadow(0 0 8px rgba(255,182,193,0.5));"/>
  <path d="M573 158Q514 62 444.0 18.5Q374 -25 260 -25Q177 -25 128.5 24.5Q80 74 80 164Q80 188 84 215Q48 169 29 141L-4 164Q126 348 196.0 405.5Q266 463 340 463Q381 463 407.5 439.0Q434 415 434 377Q434 247 205 121Q236 49 334 49Q381 49 438.5 83.0Q496 117 543 182ZM186 160Q352 241 352 340Q352 370 335.5 389.0Q319 408 291 408Q240 408 205.0 361.0Q170 314 170 248Q170 212 178 187Q186 163 186 160Z" fill="#ffb6c1" transform="translate(356.3, 180) scale(0.014648, -0.014648)" style="filter: drop-shadow(0 0 8px rgba(255,182,193,0.5));"/>
  <path d="M487 160Q374 -20 248 -20Q188 -20 173.0 8.5Q158 37 158 100V342Q91 227 27 141L-6 164Q31 219 57.0 260.0Q83 301 120.5 367.5Q158 434 158 442V852L258 950V569L412 811L451 782L258 477V170Q258 100 264.0 76.5Q270 53 297 53Q365 53 459 186Z" fill="#ffb6c1" transform="translate(364.2, 180) scale(0.014648, -0.014648)" style="filter: drop-shadow(0 0 8px rgba(255,182,193,0.5));"/>
  <path d="M-6 164Q124 349 207.0 403.0Q290 457 381 457Q468 457 517.5 411.0Q567 365 567 283Q567 166 473.0 69.5Q379 -27 254 -27Q173 -27 124.5 21.5Q76 70 76 145Q76 185 82 217Q67 200 27 139ZM319 39Q395 39 440.0 94.0Q485 149 485 240Q485 319 443.0 363.5Q401 408 332 408Q259 408 215.5 355.0Q172 302 172 207Q172 39 319 39ZM680 158Q600 44 529.0 7.5Q458 -29 387 -37L379 -14Q544 23 647 182Z" fill="#ffb6c1" transform="translate(370.8, 180) scale(0.014648, -0.014648)" style="filter: drop-shadow(0 0 8px rgba(255,182,193,0.5));"/>
  <path d="M1022 158Q905 -20 786 -20Q752 -20 733.5 2.5Q715 25 715 111V344Q715 381 686 381Q669 381 650.0 367.5Q631 354 609.5 327.0Q588 300 552.0 238.5Q516 177 516 168V10L416 -39V326Q416 371 385 371Q359 371 328.0 343.0Q297 315 257.0 246.0Q217 177 217 168V10L117 -39V293Q86 214 27 139L-4 164Q84 283 117 420L217 467V260Q331 455 432 455Q474 455 495.0 422.0Q516 389 516 260Q579 369 627.5 412.0Q676 455 729 455Q815 455 815 338V154Q815 84 822.0 68.5Q829 53 846 53Q891 53 991 184Z" fill="#ffb6c1" transform="translate(380.3, 180) scale(0.014648, -0.014648)" style="filter: drop-shadow(0 0 8px rgba(255,182,193,0.5));"/>
  <path d="M758 176Q651 1 555 -14V-332Q555 -450 481.5 -530.0Q408 -610 299 -610Q237 -610 176.0 -578.0Q115 -546 82 -489L166 -395L180 -408Q176 -433 176 -446Q176 -493 216.5 -530.0Q257 -567 315 -567Q378 -567 413.5 -518.5Q449 -470 449 -383V176Q367 60 319.0 17.5Q271 -25 225 -25Q129 -25 129 80V315Q91 228 31 145L2 172Q99 324 129 426L236 479V84Q236 49 264 49H274Q311 49 449 258V426L555 479V45Q623 51 725 201Z" fill="#ffb6c1" transform="translate(394.7, 180) scale(0.014648, -0.014648)" style="filter: drop-shadow(0 0 8px rgba(255,182,193,0.5));"/>
  <path d="M1022 158Q905 -20 786 -20Q752 -20 733.5 2.5Q715 25 715 111V344Q715 381 686 381Q669 381 650.0 367.5Q631 354 609.5 327.0Q588 300 552.0 238.5Q516 177 516 168V10L416 -39V326Q416 371 385 371Q359 371 328.0 343.0Q297 315 257.0 246.0Q217 177 217 168V10L117 -39V293Q86 214 27 139L-4 164Q84 283 117 420L217 467V260Q331 455 432 455Q474 455 495.0 422.0Q516 389 516 260Q579 369 627.5 412.0Q676 455 729 455Q815 455 815 338V154Q815 84 822.0 68.5Q829 53 846 53Q891 53 991 184Z" fill="#ffb6c1" transform="translate(405.1, 180) scale(0.014648, -0.014648)" style="filter: drop-shadow(0 0 8px rgba(255,182,193,0.5));"/>
  <path d="M745 158Q631 -20 522 -20Q481 -20 463.0 2.0Q445 24 444 94Q384 20 342.5 -2.5Q301 -25 248 -25Q171 -25 125.5 28.0Q80 81 80 170V213Q69 199 29 141L-4 164Q84 300 181.5 377.5Q279 455 352 455Q404 455 455 424L543 469V129Q543 75 548.0 64.0Q553 53 575 53Q594 53 632.0 87.0Q670 121 715 184ZM442 170V371Q402 412 346 412Q286 412 238.0 356.0Q190 300 190 217Q190 145 224.0 105.5Q258 66 317 66Q363 66 402.5 111.5Q442 157 442 170Z" fill="#ffb6c1" transform="translate(419.5, 180) scale(0.014648, -0.014648)" style="filter: drop-shadow(0 0 8px rgba(255,182,193,0.5));"/>
  <path d="M778 176Q666 -3 575 -14V-330Q575 -457 495.0 -535.5Q415 -614 299 -614Q221 -614 156.0 -578.5Q91 -543 76 -492L160 -412L174 -426Q170 -439 170 -453Q170 -504 210.5 -543.0Q251 -582 309 -582Q387 -582 431.0 -521.5Q475 -461 475 -352V98Q378 -25 266 -25Q183 -25 130.5 35.0Q78 95 78 170V211L29 141L-4 164Q116 334 192.0 395.5Q268 457 344 457Q427 457 475 410L575 471V45Q645 51 748 201ZM475 166V354Q429 424 352 424Q280 424 231.0 366.0Q182 308 182 225Q182 147 218.0 103.0Q254 59 317 59Q385 59 430.0 104.5Q475 150 475 166Z" fill="#ffb6c1" transform="translate(429.8, 180) scale(0.014648, -0.014648)" style="filter: drop-shadow(0 0 8px rgba(255,182,193,0.5));"/>
  <path d="M252 662 182 573 111 662 182 748ZM424 158Q367 72 307.0 26.0Q247 -20 199 -20Q145 -20 131.0 9.0Q117 38 117 111V293Q86 214 27 139L-4 164Q89 293 117 414L217 467V150Q217 91 222.5 72.0Q228 53 250 53Q295 53 395 184Z" fill="#ffb6c1" transform="translate(440.4, 180) scale(0.014648, -0.014648)" style="filter: drop-shadow(0 0 8px rgba(255,182,193,0.5));"/>
  <path d="M553 158Q441 -20 264 -20Q178 -20 125.0 36.5Q72 93 72 195L74 203L29 141L-4 164Q144 382 207.5 422.5Q271 463 334 463Q438 463 485 391Q471 336 420 311Q376 420 291 420Q241 420 200.5 374.0Q160 328 160 256Q160 173 208.0 113.0Q256 53 330 53Q432 53 520 182Z" fill="#ffb6c1" transform="translate(446.1, 180) scale(0.014648, -0.014648)" style="filter: drop-shadow(0 0 8px rgba(255,182,193,0.5));"/>
  <path d="M745 158Q631 -20 522 -20Q481 -20 463.0 2.0Q445 24 444 94Q384 20 342.5 -2.5Q301 -25 248 -25Q171 -25 125.5 28.0Q80 81 80 170V213Q69 199 29 141L-4 164Q84 300 181.5 377.5Q279 455 352 455Q404 455 455 424L543 469V129Q543 75 548.0 64.0Q553 53 575 53Q594 53 632.0 87.0Q670 121 715 184ZM442 170V371Q402 412 346 412Q286 412 238.0 356.0Q190 300 190 217Q190 145 224.0 105.5Q258 66 317 66Q363 66 402.5 111.5Q442 157 442 170Z" fill="#ffb6c1" transform="translate(453.6, 180) scale(0.014648, -0.014648)" style="filter: drop-shadow(0 0 8px rgba(255,182,193,0.5));"/>
  <path d="M-4 164Q15 191 30.5 214.5Q46 238 62.0 268.5Q78 299 97.5 348.5Q117 398 117 414V801Q117 944 207.0 1060.0Q297 1176 395 1176Q447 1176 476.5 1140.0Q506 1104 506 1044Q506 964 440.0 828.5Q374 693 217 449V160Q217 98 222.0 75.5Q227 53 248 53Q293 53 393 184L424 158Q305 -20 188 -20Q153 -20 135.0 3.5Q117 27 117 111V293Q86 214 27 139ZM217 522Q351 742 393.5 841.5Q436 941 436 1014Q436 1126 367 1126Q304 1126 260.5 1055.0Q217 984 217 862Z" fill="#ffb6c1" transform="translate(463.9, 180) scale(0.014648, -0.014648)" style="filter: drop-shadow(0 0 8px rgba(255,182,193,0.5));"/>
  <path d="M231 483Q309 443 356.0 366.0Q403 289 403 211Q403 118 348.5 49.0Q294 -20 209 -20Q167 -20 118.0 8.0Q69 36 33 90Q64 138 123 172L131 162Q129 152 129 133Q129 90 159.0 56.5Q189 23 227 23Q274 23 304.0 62.5Q334 102 334 162Q334 286 186 383L101 249Q50 167 27 139L-4 164Q98 315 199 532L223 530ZM573 158Q466 -18 303 -33L297 -14Q369 3 419.5 42.5Q470 82 543 182Z" fill="#ffb6c1" transform="translate(469.7, 180) scale(0.014648, -0.014648)" style="filter: drop-shadow(0 0 8px rgba(255,182,193,0.5));"/>
  <path d="M225 360Q327 463 424 463Q501 463 546.5 409.0Q592 355 592 266Q592 152 517.5 67.0Q443 -18 348 -18Q279 -18 225 23V-362Q225 -481 159.0 -548.5Q93 -616 -2 -616Q-102 -616 -158 -530L-76 -449L-59 -463Q-66 -481 -66 -492Q-66 -529 -41.5 -556.5Q-17 -584 20 -584Q119 -584 119 -385V297Q83 214 25 139L-4 164Q78 276 119 418L225 471ZM225 74Q276 25 346 25Q411 25 456.5 81.0Q502 137 502 221Q502 293 462.5 336.0Q423 379 362 379Q283 379 225 295ZM743 158Q633 -16 451 -37L442 -14Q603 22 713 182Z" fill="#ffb6c1" transform="translate(477.5, 180) scale(0.014648, -0.014648)" style="filter: drop-shadow(0 0 8px rgba(255,182,193,0.5));"/>
  <path d="M745 158Q631 -20 522 -20Q481 -20 463.0 2.0Q445 24 444 94Q384 20 342.5 -2.5Q301 -25 248 -25Q171 -25 125.5 28.0Q80 81 80 170V213Q69 199 29 141L-4 164Q84 300 181.5 377.5Q279 455 352 455Q404 455 455 424L543 469V129Q543 75 548.0 64.0Q553 53 575 53Q594 53 632.0 87.0Q670 121 715 184ZM442 170V371Q402 412 346 412Q286 412 238.0 356.0Q190 300 190 217Q190 145 224.0 105.5Q258 66 317 66Q363 66 402.5 111.5Q442 157 442 170Z" fill="#ffb6c1" transform="translate(487.8, 180) scale(0.014648, -0.014648)" style="filter: drop-shadow(0 0 8px rgba(255,182,193,0.5));"/>
  <path d="M553 158Q441 -20 264 -20Q178 -20 125.0 36.5Q72 93 72 195L74 203L29 141L-4 164Q144 382 207.5 422.5Q271 463 334 463Q438 463 485 391Q471 336 420 311Q376 420 291 420Q241 420 200.5 374.0Q160 328 160 256Q160 173 208.0 113.0Q256 53 330 53Q432 53 520 182Z" fill="#ffb6c1" transform="translate(498.1, 180) scale(0.014648, -0.014648)" style="filter: drop-shadow(0 0 8px rgba(255,182,193,0.5));"/>
  <path d="M573 158Q514 62 444.0 18.5Q374 -25 260 -25Q177 -25 128.5 24.5Q80 74 80 164Q80 188 84 215Q48 169 29 141L-4 164Q126 348 196.0 405.5Q266 463 340 463Q381 463 407.5 439.0Q434 415 434 377Q434 247 205 121Q236 49 334 49Q381 49 438.5 83.0Q496 117 543 182ZM186 160Q352 241 352 340Q352 370 335.5 389.0Q319 408 291 408Q240 408 205.0 361.0Q170 314 170 248Q170 212 178 187Q186 163 186 160Z" fill="#ffb6c1" transform="translate(505.6, 180) scale(0.014648, -0.014648)" style="filter: drop-shadow(0 0 8px rgba(255,182,193,0.5));"/>
  <path d="M616 848Q609 784 559 748Q475 832 410 879L387 864Q385 830 424 672Q393 662 365 662Q336 662 307 672Q341 795 344 866L330 877Q272 834 188 745Q129 780 123 842Q201 860 311 909L317 934Q220 982 127 1004Q127 1073 184 1104Q254 1026 334 969L350 981Q341 1052 309 1176Q337 1188 369 1188Q402 1188 424 1176Q399 1079 391 981L414 963Q538 1073 557 1098Q608 1070 616 1004Q519 978 432 928V913Q556 860 616 848Z" fill="#ffb6c1" transform="translate(513.5, 180) scale(0.014648, -0.014648)" style="filter: drop-shadow(0 0 8px rgba(255,182,193,0.5));"/>
  <path d="M616 848Q609 784 559 748Q475 832 410 879L387 864Q385 830 424 672Q393 662 365 662Q336 662 307 672Q341 795 344 866L330 877Q272 834 188 745Q129 780 123 842Q201 860 311 909L317 934Q220 982 127 1004Q127 1073 184 1104Q254 1026 334 969L350 981Q341 1052 309 1176Q337 1188 369 1188Q402 1188 424 1176Q399 1079 391 981L414 963Q538 1073 557 1098Q608 1070 616 1004Q519 978 432 928V913Q556 860 616 848Z" fill="#ffb6c1" transform="translate(524.5, 180) scale(0.014648, -0.014648)" style="filter: drop-shadow(0 0 8px rgba(255,182,193,0.5));"/>
  <path d="M616 848Q609 784 559 748Q475 832 410 879L387 864Q385 830 424 672Q393 662 365 662Q336 662 307 672Q341 795 344 866L330 877Q272 834 188 745Q129 780 123 842Q201 860 311 909L317 934Q220 982 127 1004Q127 1073 184 1104Q254 1026 334 969L350 981Q341 1052 309 1176Q337 1188 369 1188Q402 1188 424 1176Q399 1079 391 981L414 963Q538 1073 557 1098Q608 1070 616 1004Q519 978 432 928V913Q556 860 616 848Z" fill="#ffb6c1" transform="translate(535.5, 180) scale(0.014648, -0.014648)" style="filter: drop-shadow(0 0 8px rgba(255,182,193,0.5));"/>
</svg>
